<svg width="12" height="13" viewBox="0 0 12 13" fill="none" xmlns="http://www.w3.org/2000/svg">
<path d="M11.71 7.21L6.71 12.21C6.6149 12.301 6.50275 12.3724 6.38 12.42C6.13654 12.52 5.86346 12.52 5.62 12.42C5.49725 12.3724 5.38511 12.301 5.29 12.21L0.290002 7.21C0.196764 7.11676 0.122803 7.00607 0.0723429 6.88425C0.0218825 6.76242 -0.00408936 6.63186 -0.00408936 6.5C-0.00408936 6.2337 0.101699 5.9783 0.290002 5.79C0.478306 5.60169 0.733701 5.49591 1 5.49591C1.2663 5.49591 1.5217 5.60169 1.71 5.79L5 9.09V1.5C5 1.23478 5.10536 0.980426 5.2929 0.79289C5.48043 0.605353 5.73479 0.499997 6 0.499997C6.26522 0.499997 6.51957 0.605353 6.70711 0.79289C6.89465 0.980426 7 1.23478 7 1.5V9.09L10.29 5.79C10.383 5.69627 10.4936 5.62187 10.6154 5.57111C10.7373 5.52034 10.868 5.4942 11 5.4942C11.132 5.4942 11.2627 5.52034 11.3846 5.57111C11.5064 5.62187 11.617 5.69627 11.71 5.79C11.8037 5.88296 11.8781 5.99356 11.9289 6.11542C11.9797 6.23728 12.0058 6.36798 12.0058 6.5C12.0058 6.63201 11.9797 6.76271 11.9289 6.88457C11.8781 7.00643 11.8037 7.11703 11.71 7.21Z" fill="#130F28"/>
</svg>
