<?xml version="1.0" encoding="UTF-8"?>
<svg version="1.1" xmlns="http://www.w3.org/2000/svg" width="2381" height="961">
<path d="M0 0 C0.7058725 0.00087616 1.411745 0.00175232 2.13900757 0.00265503 C20.42273072 0.07735843 35.78791067 3.94101917 52.71679688 10.68237305 C56.31972466 12.08181255 57.9596597 12.46771034 61.60546875 11.265625 C62.4164502 11.00676514 63.22743164 10.74790527 64.06298828 10.48120117 C64.92907715 10.19865479 65.79516602 9.9161084 66.6875 9.625 C84.30437643 4.10759164 101.52493779 2.13981664 119.9375 2.125 C120.69255829 2.12432526 121.44761658 2.12365051 122.22555542 2.12295532 C133.8846097 2.13948291 145.11981843 2.62339018 156.5 5.375 C157.21317383 5.54128906 157.92634766 5.70757812 158.66113281 5.87890625 C186.80216232 12.65383088 211.64641218 30.28716963 227.20458984 54.73193359 C238.16351686 72.66342435 242.69932169 91.69091548 242.8125 112.625 C242.81792313 113.61929016 242.81792313 113.61929016 242.82345581 114.63366699 C242.84829321 125.98076152 242.70129586 138.97240829 237.5 149.375 C238.05872803 149.25906494 238.61745605 149.14312988 239.19311523 149.02368164 C241.77372403 148.49072693 244.35558459 147.96408684 246.9375 147.4375 C247.81599609 147.25509766 248.69449219 147.07269531 249.59960938 146.88476562 C284.52163064 139.79727053 317.73583658 146.64305462 347.66210938 165.75585938 C352.11082029 168.75192999 356.33969594 171.99271473 360.5 175.375 C361.09361328 175.85582031 361.68722656 176.33664063 362.29882812 176.83203125 C382.48256181 193.33609827 382.48256181 193.33609827 388.00073242 201.63085938 C391.93457472 207.44482526 394.97048536 209.50051709 401.83789062 210.94384766 C402.86076172 211.12737793 403.88363281 211.3109082 404.9375 211.5 C415.19334936 213.68677153 424.12966382 216.72361918 433.5 221.375 C434.4075 221.81457031 435.315 222.25414062 436.25 222.70703125 C438.01184143 223.5726582 439.75898172 224.46821965 441.5 225.375 C441.97308594 224.49199219 442.44617187 223.60898438 442.93359375 222.69921875 C456.22552608 198.37099603 475.78104405 182.46014855 502.0874176 174.25622559 C514.91399461 170.84919085 527.3804027 170.79073318 540.58984375 170.84375 C542.98865414 170.84104757 545.38746345 170.83715896 547.78627014 170.83215332 C552.78787779 170.82629247 557.78919759 170.83470974 562.79077148 170.85351562 C569.15267614 170.87629009 575.51390498 170.8631689 581.87578487 170.83922577 C586.82195484 170.82466447 591.76796869 170.82942104 596.71414375 170.83973694 C599.05773565 170.84237641 601.40134244 170.83923424 603.74491692 170.82981873 C633.70381242 170.73583719 658.59010086 177.24347414 680.6796875 198.5234375 C703.26547991 220.98673069 708.91704559 247.81451985 709.01171875 278.5 C709.02860439 280.58464589 709.0467597 282.66928184 709.06611633 284.75390625 C709.11320103 290.18539318 709.14327718 295.61683981 709.16955566 301.04846191 C709.19957307 306.61311806 709.24602946 312.1776358 709.29101562 317.7421875 C709.376575 328.61971863 709.44412852 339.49727863 709.5 350.375 C710.29809082 349.64112061 711.09618164 348.90724121 711.91845703 348.15112305 C712.98988186 347.16712555 714.06133521 346.18315911 715.1328125 345.19921875 C715.65593018 344.71803589 716.17904785 344.23685303 716.71801758 343.74108887 C739.34428999 322.97271778 762.58321303 312.05841121 793.5625 312.3125 C794.61888672 312.31701172 795.67527344 312.32152344 796.76367188 312.32617188 C799.34250908 312.33784082 801.92122294 312.35421115 804.5 312.375 C804.62955078 310.78751953 804.62955078 310.78751953 804.76171875 309.16796875 C810.0984087 249.39704135 831.44354395 188.31549629 869.5 141.375 C870.60601563 139.98087891 870.60601563 139.98087891 871.734375 138.55859375 C884.36892314 122.81021193 898.5055711 107.7390462 914.5 95.375 C915.76471191 94.37028113 917.0290053 93.36503529 918.29296875 92.359375 C963.664173 56.58437645 1031.97725338 24.44881759 1091.21044922 30.65917969 C1115.52773712 34.43141857 1137.3319826 49.09813297 1152.33984375 68.24609375 C1169.10916771 92.53583785 1172.53736828 118.88598344 1168.875 147.8125 C1168.7434552 148.87256256 1168.7434552 148.87256256 1168.60925293 149.95404053 C1161.35876173 207.84342078 1143.44321848 263.09854553 1117.51879883 315.21142578 C1116.42899696 317.12721176 1116.42899696 317.12721176 1116.5 318.375 C1117.2120459 318.53991943 1117.9240918 318.70483887 1118.65771484 318.87475586 C1142.72645416 324.51183706 1166.23090101 331.46603852 1188.5 342.375 C1189.35996582 342.79539551 1190.21993164 343.21579102 1191.10595703 343.64892578 C1217.91092412 356.89626036 1239.34547944 374.37572656 1249.5 403.375 C1259.46900175 435.00270387 1253.40559238 462.18347473 1238.71875 491.046875 C1238.4096381 491.65473091 1238.1005262 492.26258682 1237.78204727 492.88886261 C1234.86783372 498.61114828 1231.9329881 504.32274727 1228.98242188 510.02636719 C1227.35402076 513.17624184 1225.74117776 516.3336809 1224.13771057 519.496315 C1223.23327987 521.26840598 1222.31104375 523.03137312 1221.3885498 524.79412842 C1220.84718384 525.86334534 1220.30581787 526.93256226 1219.74804688 528.03417969 C1219.26428589 528.97187195 1218.7805249 529.90956421 1218.28210449 530.87567139 C1217.24623244 533.32916633 1217.24623244 533.32916633 1218.23474121 535.56915283 C1219.92725867 537.98480715 1221.88305313 540.00809794 1223.9375 542.125 C1230.28249011 549.00102824 1235.45637588 556.51006815 1240.5 564.375 C1240.87398926 564.95620605 1241.24797852 565.53741211 1241.63330078 566.13623047 C1251.29090327 581.400323 1257.53182551 598.81521281 1261.5 616.375 C1261.69609863 617.20837891 1261.89219727 618.04175781 1262.09423828 618.90039062 C1268.46315595 647.12568396 1268.49541717 680.31347497 1261.5 708.375 C1261.28569336 709.26687012 1261.07138672 710.15874023 1260.85058594 711.07763672 C1248.17408822 762.67854772 1214.6611223 805.12360785 1169.58691406 832.53857422 C1164.96443076 835.29117029 1160.25692968 837.86331437 1155.5 840.375 C1154.83178223 840.73416504 1154.16356445 841.09333008 1153.47509766 841.46337891 C1114.41021708 862.19187284 1066.766281 871.4016349 1022.9140625 871.578125 C1021.74617188 871.58504868 1020.57828125 871.59197235 1019.375 871.59910583 C1015.62496548 871.61630055 1011.87507209 871.62269324 1008.125 871.625 C1006.84743835 871.62633942 1005.56987671 871.62767883 1004.25360107 871.62905884 C982.8694168 871.62418742 961.96842238 871.00088229 940.90283203 867.015625 C940.02739746 866.86609375 939.15196289 866.7165625 938.25 866.5625 C937.31165518 866.3962284 937.31165518 866.3962284 936.3543539 866.22659779 C931.25400936 865.41396103 926.71601772 865.50500431 921.60717773 866.28198242 C909.44797159 867.85718102 897.27603099 867.68372388 885.03515625 867.67578125 C882.50565014 867.67967953 879.97614467 867.68401647 877.44664001 867.68876648 C872.17282484 867.69618126 866.89905909 867.69611358 861.62524414 867.69067383 C855.5835117 867.68463662 849.54201229 867.69696106 843.50031954 867.7182439 C837.61848845 867.73817863 831.73674664 867.74101117 825.85488701 867.73750877 C823.38372691 867.73801684 820.91256266 867.74315598 818.44142342 867.75332069 C786.10726993 867.87005786 757.28388353 862.88525054 733.5 839.375 C726.0748594 831.56974071 719.52874495 822.96239049 712.92578125 814.46484375 C710.2120024 811.00816247 707.40438827 807.67187317 704.5 804.375 C701.77901161 807.09598839 700.50448347 810.37881907 698.875 813.8125 C695.41945683 820.91144817 691.43435133 827.18832957 686.5 833.375 C686.06042969 833.95507812 685.62085938 834.53515625 685.16796875 835.1328125 C671.52227018 852.56644746 648.24555036 863.65921156 626.6303196 866.63215446 C620.96860045 867.31313083 615.40339276 867.52325981 609.7043457 867.52026367 C608.30233162 867.52530159 608.30233162 867.52530159 606.87199402 867.53044128 C603.80657594 867.53987731 600.74121292 867.5418908 597.67578125 867.54296875 C595.52499876 867.54618684 593.37421649 867.54955132 591.22343445 867.55305481 C586.72227471 867.55902802 582.22113412 867.56089661 577.7199707 867.56030273 C571.98538582 867.56020131 566.2509253 867.5738413 560.51636982 867.59107494 C556.07479807 867.60225866 551.63325576 867.60421998 547.19167137 867.60369301 C545.07922119 867.60486401 542.96677002 867.60923564 540.85433388 867.61702538 C517.91477552 867.69368858 497.68294593 864.88473403 477.5 853.375 C476.59507812 852.43527344 476.59507812 852.43527344 475.671875 851.4765625 C473.61927869 850.15857409 473.61927869 850.15857409 471.65039062 850.72070312 C469.22768148 851.51965876 466.87157834 852.43523269 464.5 853.375 C462.70624541 854.00633257 460.90921008 854.62840414 459.109375 855.2421875 C458.16400879 855.56799805 457.21864258 855.89380859 456.24462891 856.22949219 C428.94201911 865.5336589 400.33633824 871.44486108 371.40234375 871.578125 C370.37806274 871.58513931 369.35378174 871.59215363 368.29846191 871.59938049 C365.01142936 871.61678627 361.72457694 871.62323267 358.4375 871.625 C357.31473663 871.62567474 356.19197327 871.62634949 355.03518677 871.62704468 C338.65500947 871.61138583 322.66753359 871.24406543 306.5 868.375 C304.9840625 868.11759033 304.9840625 868.11759033 303.4375 867.85498047 C273.69762478 862.70663264 245.75870279 853.77209796 218.75976562 840.32348633 C217.75623047 839.8261499 216.75269531 839.32881348 215.71875 838.81640625 C214.83123047 838.36982666 213.94371094 837.92324707 213.02929688 837.46313477 C210.46975908 836.36198998 208.27272373 835.65865385 205.5 835.375 C203.14289788 837.15255445 203.14289788 837.15255445 201 839.75 C184.8478467 856.78231482 161.59963014 866.48506891 138.24166489 867.47025108 C135.88701539 867.51043632 133.53418905 867.52157528 131.17919922 867.52026367 C130.29489731 867.52362228 129.4105954 867.5269809 128.49949646 867.53044128 C125.60121216 867.53987166 122.70298615 867.5418906 119.8046875 867.54296875 C117.76840187 867.54618756 115.73211646 867.54955209 113.6958313 867.55305481 C109.43425969 867.55902686 105.1727083 867.56089677 100.91113281 867.56030273 C95.48828227 867.56020139 90.06556348 867.57383333 84.64274406 867.59107494 C80.43703635 867.60227326 76.23135966 867.60421953 72.02563858 867.60369301 C70.02844922 867.60486214 68.03125878 867.60922288 66.03408432 867.61702538 C51.76394171 867.66754485 37.81272708 867.54733401 24.16015625 862.86328125 C17.98853556 861.73045807 11.56799783 863.74010767 5.54125977 865.08911133 C-31.32501945 873.26852431 -72.22302424 875.4357058 -109.5 868.375 C-110.45825684 868.19807617 -111.41651367 868.02115234 -112.40380859 867.83886719 C-130.30413345 864.44574619 -147.84288687 859.74467714 -164.53125 852.37890625 C-167.68269276 851.313221 -168.5354968 851.05935808 -171.5 852.375 C-173.13212335 853.25257386 -174.76240338 854.13437432 -176.37109375 855.05419922 C-196.38354626 866.45942488 -216.95595822 867.69336631 -239.515625 867.67578125 C-241.62343427 867.67968036 -243.73124277 867.68401746 -245.83905029 867.68876648 C-250.23631345 867.69618305 -254.63349625 867.6959711 -259.03076172 867.69067383 C-264.61230302 867.68488985 -270.19351133 867.70180702 -275.77499771 867.7250185 C-280.12326925 867.73988902 -284.47146308 867.74060954 -288.81975555 867.73750877 C-290.87504484 867.73801547 -292.93033926 867.7431277 -294.98560333 867.75332069 C-326.96227405 867.89246788 -353.84738803 861.02316971 -377.6875 838.625 C-388.78788843 826.93914804 -396.92232908 812.74252264 -400.9921875 797.1328125 C-401.34978528 795.36418894 -401.34978528 795.36418894 -402.5 794.375 C-402.768125 795.28378906 -403.03625 796.19257812 -403.3125 797.12890625 C-407.4997613 810.55844495 -413.23044127 822.64291089 -422.5 833.375 C-423.08007812 834.09816406 -423.66015625 834.82132813 -424.2578125 835.56640625 C-433.87906136 847.14008427 -445.9269968 854.33477403 -459.5 860.375 C-460.42167969 860.79652344 -461.34335937 861.21804688 -462.29296875 861.65234375 C-477.96620674 868.0917361 -495.6613759 867.81977851 -512.30078125 867.73828125 C-514.43727111 867.73776072 -516.57376146 867.73828586 -518.71025085 867.73979187 C-523.15171616 867.73970296 -527.59299689 867.72943685 -532.03442383 867.71118164 C-537.69027775 867.68842803 -543.34586471 867.68797193 -549.0017519 867.69469929 C-553.40042949 867.69805938 -557.7990476 867.69137206 -562.19771385 867.68157005 C-564.28224564 867.67775812 -566.36678408 867.67655293 -568.45131874 867.6781559 C-591.11916334 867.6810735 -616.36118049 865.92039498 -634.72265625 850.8203125 C-635.24375977 850.39395508 -635.76486328 849.96759766 -636.30175781 849.52832031 C-637.72748193 848.32193837 -639.10962921 847.06459432 -640.48828125 845.8046875 C-643.87066321 844.19904315 -644.32696356 844.28269156 -647.71484375 845.37109375 C-649.32036126 846.01350088 -650.91529786 846.6828349 -652.5 847.375 C-654.12977548 848.03622414 -655.75999679 848.69635031 -657.390625 849.35546875 C-658.24954346 849.71092773 -659.10846191 850.06638672 -659.9934082 850.43261719 C-697.88030626 865.96184969 -740.12509581 873.42413338 -781.0234375 873.578125 C-782.27541931 873.58518463 -783.52740112 873.59224426 -784.81732178 873.59951782 C-788.83658984 873.61704053 -792.85570171 873.62420986 -796.875 873.625 C-797.90259556 873.62544186 -797.90259556 873.62544186 -798.95095062 873.62589264 C-819.27959365 873.62730523 -839.35292333 873.43625547 -859.5 870.375 C-860.87316473 870.17400941 -862.24637654 869.97334019 -863.61962891 869.77294922 C-904.58938125 863.71188532 -944.97508364 853.15437243 -982.5 835.375 C-983.23412109 835.02872559 -983.96824219 834.68245117 -984.72460938 834.32568359 C-989.37277163 832.11273541 -993.95052953 829.78367505 -998.5 827.375 C-999.21462402 826.99907715 -999.92924805 826.6231543 -1000.66552734 826.23583984 C-1017.11669213 817.52346274 -1032.13144127 807.19298071 -1046.5 795.375 C-1047.40492187 794.63765625 -1048.30984375 793.9003125 -1049.2421875 793.140625 C-1066.26294714 778.61200151 -1077.31705228 757.50049303 -1080.5 735.375 C-1081.9889845 707.38209136 -1075.78082794 686.10742433 -1064.125 661.125 C-1062.70734287 658.06806158 -1061.29416818 655.00907109 -1059.8828125 651.94921875 C-1059.52290222 651.16969345 -1059.16299194 650.39016815 -1058.79217529 649.58702087 C-1056.18824428 643.92613576 -1053.66630616 638.2328075 -1051.1796875 632.51953125 C-1050.82742096 631.71331329 -1050.47515442 630.90709534 -1050.11221313 630.07644653 C-1048.05851653 625.37682989 -1048.05851653 625.37682989 -1046.02813721 620.66711426 C-1038.90586737 604.03334551 -1029.50877042 591.05021221 -1016.5 578.375 C-1018.02995456 574.92463373 -1020.0743456 572.3179646 -1022.5 569.4375 C-1055.27411777 529.7829184 -1071.03549983 483.73314824 -1070.8125 432.25 C-1070.81034485 431.35047607 -1070.8081897 430.45095215 -1070.80596924 429.52416992 C-1070.75265183 415.6246611 -1070.2793834 402.03658595 -1067.5 388.375 C-1067.29600586 387.37162598 -1067.09201172 386.36825195 -1066.88183594 385.33447266 C-1060.53566503 355.16013892 -1049.44181705 326.61871934 -1031.5 301.375 C-1030.75234375 300.31539063 -1030.0046875 299.25578125 -1029.234375 298.1640625 C-1017.04371311 281.45671654 -1002.93839082 265.9740888 -986.5 253.375 C-985.70118408 252.75359131 -985.70118408 252.75359131 -984.88623047 252.11962891 C-927.75794765 207.86855581 -855.825928 192.86077656 -785 193.0625 C-783.65965791 193.06442315 -782.3193157 193.06626368 -780.97897339 193.06802368 C-761.98101146 193.10429588 -743.30753899 193.4687704 -724.5 196.375 C-723.34902832 196.54128906 -722.19805664 196.70757812 -721.01220703 196.87890625 C-682.91041703 202.45704549 -645.36511706 212.93306935 -610.5 229.375 C-609.57251953 229.80925293 -608.64503906 230.24350586 -607.68945312 230.69091797 C-575.31177259 245.98037822 -549.95830786 263.29487695 -535.67578125 297.0625 C-534.00857478 301.75948035 -532.76217054 306.55570595 -531.5 311.375 C-530.39188965 311.39481934 -529.2837793 311.41463867 -528.14208984 311.43505859 C-523.96334101 311.51211759 -519.78489593 311.60066439 -515.60644531 311.69238281 C-513.81060863 311.73026424 -512.01470654 311.76518165 -510.21875 311.796875 C-495.7235811 312.0557173 -481.91940355 312.63059072 -468.20703125 317.78320312 C-460.98887841 320.28971037 -454.85728661 318.55754473 -447.75219727 316.71191406 C-438.26604666 314.2499021 -428.76365067 312.50484907 -419.0625 311.125 C-417.9271582 310.96217529 -416.79181641 310.79935059 -415.62207031 310.6315918 C-402.44520173 308.83309632 -389.35555112 308.18018675 -376.0625 308.1875 C-375.37455353 308.18710724 -374.68660706 308.18671448 -373.97781372 308.18630981 C-359.03665266 308.19644585 -344.28719178 309.22787414 -329.5 311.375 C-328.72381624 292.62199031 -328.26636794 273.89478031 -328.25 255.125 C-328.24766357 253.8705307 -328.24532715 252.6160614 -328.24291992 251.32357788 C-328.23205973 235.70625207 -328.59849714 220.24242907 -330 204.6875 C-331.22863621 190.98280807 -331.85381138 177.3623091 -331.921875 163.59896851 C-331.93208305 161.57436563 -331.94888604 159.54978234 -331.97314453 157.52529907 C-332.32360603 124.54123925 -321.37387759 96.33603021 -298.75 72.1875 C-284.40806181 58.62784935 -266.6825488 49.04733936 -247.5 44.375 C-246.64019531 44.16359375 -245.78039062 43.9521875 -244.89453125 43.734375 C-214.61709925 37.32160574 -180.2724537 43.06231437 -154.125 59.6875 C-139.93210182 69.1227961 -127.49984717 80.82710724 -118.5 95.375 C-117.89865234 93.50521484 -117.89865234 93.50521484 -117.28515625 91.59765625 C-111.94355096 75.42583839 -105.24549687 60.71958817 -94.5 47.375 C-94.07428711 46.84390625 -93.64857422 46.3128125 -93.20996094 45.765625 C-87.79924461 39.05895174 -82.31595372 32.70269961 -75.5 27.375 C-74.64277344 26.68148437 -73.78554687 25.98796875 -72.90234375 25.2734375 C-51.45873033 8.47642133 -27.27894778 -0.08284175 0 0 Z " fill="#130F28" transform="translate(1105.5,30.625)"/>
<path d="M0 0 C28.38 0 56.76 0 86 0 C86.33 99.99 86.66 199.98 87 303 C92.61 297.72 98.22 292.44 104 287 C110.625 280.875 110.625 280.875 113.7578125 277.9921875 C117.35464247 274.67867706 120.92751483 271.33971444 124.5 268 C129.67770334 263.16034615 134.87320277 258.34094129 140.0859375 253.5390625 C144.23971157 249.70948543 148.37254137 245.85791031 152.5 242 C157.67774651 237.16039204 162.87320243 232.34094161 168.0859375 227.5390625 C172.23971157 223.70948543 176.37254137 219.85791031 180.5 216 C185.67698958 211.16109954 190.87148217 206.34212949 196.08374023 201.54125977 C200.26010919 197.69119951 204.41358672 193.81711262 208.5625 189.9375 C213.98146428 184.87098868 219.43452046 179.84508935 224.91015625 174.83984375 C229.08035694 171.01704669 233.20770364 167.14830001 237.33911133 163.28369141 C242.13389327 158.80082044 246.95108626 154.34298729 251.78881836 149.90649414 C254.87742653 147.08018471 254.87742653 147.08018471 257.54986572 143.8706665 C261.39784425 140.9327522 265.1979596 141.47448563 269.90917969 141.54589844 C271.4169825 141.54502228 271.4169825 141.54502228 272.95524597 141.54412842 C276.27780691 141.54691515 279.59947078 141.57803596 282.921875 141.609375 C285.22543854 141.61683527 287.52900842 141.62252921 289.83258057 141.62652588 C295.89574707 141.64179893 301.95853033 141.68109567 308.02154541 141.7253418 C314.20832128 141.76625815 320.39515908 141.78452916 326.58203125 141.8046875 C338.72152255 141.84758787 350.86072941 141.91585983 363 142 C357.98775395 148.05526498 352.54617204 153.58241538 346.97485352 159.12280273 C345.97033707 160.1253965 344.96605064 161.12822078 343.9619751 162.1312561 C341.81088304 164.27920356 339.6582514 166.42559145 337.50439644 168.57076836 C334.0925143 171.96904624 330.68452271 175.37120822 327.27708435 178.77394104 C319.42785223 186.61116569 311.57360799 194.44336101 303.71929932 202.27549744 C296.51912094 209.4554506 289.32002855 216.63648391 282.12499183 223.82159001 C278.74389065 227.19773562 275.36037286 230.5714341 271.97492802 233.94322383 C269.86214026 236.04850402 267.75146972 238.15589736 265.64134216 240.26384354 C264.20954163 241.69290725 262.77522279 243.11944649 261.34080505 244.54588318 C256.87481427 249.01151109 252.55959154 253.53603565 248.44520283 258.32797337 C246.73340223 260.30844015 244.93849815 262.18202449 243.08422852 264.02929688 C242.40405167 264.70939819 241.72387482 265.38949951 241.02308655 266.09020996 C240.31550705 266.79262817 239.60792755 267.49504639 238.87890625 268.21875 C238.13414536 268.96209595 237.38938446 269.70544189 236.62205505 270.47131348 C234.27123255 272.81659301 231.91693569 275.15834836 229.5625 277.5 C227.95614801 279.10132961 226.35002603 280.70288998 224.74414062 282.3046875 C220.83208015 286.20579473 216.91717048 290.1040242 213 294 C213.95012572 295.26817953 214.90043902 296.53621852 215.85083008 297.80419922 C216.64460808 298.86343094 216.64460808 298.86343094 217.454422 299.94406128 C224.37098609 309.14452345 231.48505772 318.19373525 238.60888672 327.23388672 C240.90874237 330.15371048 243.20415945 333.07701893 245.5 336 C246.4166451 337.16668361 247.33331177 338.33335027 248.25 339.5 C278.5 378 278.5 378 308.75 416.5 C309.20415283 417.0779834 309.65830566 417.6559668 310.1262207 418.25146484 C311.03893348 419.41315826 311.95153194 420.5749415 312.86401367 421.73681641 C315.2152251 424.73033662 317.56866039 427.72206754 319.92578125 430.7109375 C320.65087891 431.63132812 320.65087891 431.63132812 321.390625 432.5703125 C322.30002675 433.72455319 323.21011671 434.87825219 324.12109375 436.03125 C327.48420106 440.30218995 330.75256063 444.64061606 334 449 C335.42036219 446.3352497 336.83660724 443.66844741 338.25 441 C338.91249756 439.75307373 338.91249756 439.75307373 339.58837891 438.48095703 C342.2139846 433.50463515 344.74873677 428.49663943 347.1953125 423.4296875 C347.72479492 422.34042969 348.25427734 421.25117187 348.79980469 420.12890625 C349.84088859 417.97832251 350.87042339 415.82210536 351.88769531 413.66015625 C352.36561523 412.67660156 352.84353516 411.69304687 353.3359375 410.6796875 C353.75407715 409.80038574 354.1722168 408.92108398 354.60302734 408.01513672 C356 406 356 406 357.95629883 405.10595703 C361.54998649 404.91963993 364.34259903 407.18608901 367.3125 409 C368.76204469 409.8463619 370.21392047 410.68874261 371.66796875 411.52734375 C372.39806152 411.94870605 373.1281543 412.37006836 373.88037109 412.80419922 C395.28332265 424.87879686 419.08565813 431.16725391 443 436 C443.94746094 436.1949707 444.89492187 436.38994141 445.87109375 436.59082031 C475.95341074 442.50550144 519.17782483 444.10600003 545.8515625 426.6484375 C552.99920245 421.1642483 556.98643622 414.79735604 559 406 C559.92280138 398.30299756 559.09765477 391.62235712 554.74609375 385.12890625 C540.71666577 367.3532005 511.29447841 365.51702848 490.5 362 C488.43455191 361.64527451 486.36920415 361.28996441 484.30395508 360.93408203 C475.03939305 359.3420041 465.77049378 357.78981303 456.4855957 356.32104492 C430.41450855 352.16504839 404.17000702 346.02231584 381 333 C380.00742188 332.44699219 379.01484375 331.89398437 377.9921875 331.32421875 C370.4447264 326.8193951 364.23709999 321.12940905 358 315 C357.34128906 314.37738281 356.68257812 313.75476563 356.00390625 313.11328125 C339.55546317 296.20899217 335.58927259 271.21286758 335.63208008 248.71679688 C335.83356101 234.16433528 338.56094885 221.14246216 345 208 C345.42925781 207.1028125 345.85851563 206.205625 346.30078125 205.28125 C361.34840792 175.77942419 389.95604103 157.79447391 420.62060547 147.74951172 C440.61225243 141.45212241 460.94588468 137.93109325 481.921875 137.76171875 C482.93230362 137.7519249 483.94273224 137.74213104 484.98377991 137.73204041 C507.67662041 137.55746087 529.61918533 137.91568128 552 142 C553.20769043 142.20898926 554.41538086 142.41797852 555.65966797 142.63330078 C578.99482853 146.73176669 601.87631834 153.09927658 623 164 C624.64551893 164.81313655 626.29129605 165.62575116 627.9375 166.4375 C628.948125 166.953125 629.95875 167.46875 631 168 C630.3745806 172.11032973 629.01631505 175.34712889 627.16430664 179.05957031 C626.87476608 179.64390839 626.58522552 180.22824646 626.28691101 180.83029175 C625.33398348 182.74928694 624.37240527 184.66378904 623.41015625 186.578125 C622.7434182 187.91362277 622.07703645 189.24929848 621.41099548 190.58514404 C620.01690414 193.37774134 618.61851098 196.16812999 617.21704102 198.95703125 C615.4187226 202.53653056 613.6312816 206.1213342 611.84699345 209.70784378 C610.47446319 212.46372564 609.09624862 215.21673326 607.71627617 217.96889496 C607.05464808 219.29014699 606.39480806 220.61229594 605.73677254 221.93534088 C604.81864318 223.77919166 603.89294549 225.61903765 602.96508789 227.45800781 C602.43959854 228.50659973 601.91410919 229.55519165 601.37269592 230.63555908 C600 233 600 233 598 234 C595.50631536 232.75162405 593.10763374 231.4418395 590.6875 230.0625 C575.12015078 221.53712441 558.34037731 215.69591957 541 212 C540.09878418 211.80390137 539.19756836 211.60780273 538.26904297 211.40576172 C523.75108675 208.38149661 509.52783705 207.62866462 494.75 207.625 C493.92133423 207.62309662 493.09266846 207.62119324 492.2388916 207.61923218 C470.01523901 207.62502045 444.4181637 209.83313045 427.546875 226.14453125 C421.32097495 233.61246692 419.17756414 241.40491495 420 251 C421.46004426 258.99312367 424.56748003 265.62050963 431.12109375 270.6171875 C433.68449684 272.24193888 436.2885163 273.63680902 439 275 C439.9384375 275.49242187 440.876875 275.98484375 441.84375 276.4921875 C461.25393166 285.76487329 483.95439568 287.92679221 504.9375 291.5 C602.01938787 308.04581177 602.01938787 308.04581177 627.5 342.5625 C642.07990987 364.25216368 646.55918158 390.42260431 642.28125 416.19921875 C638.82180171 432.9710209 631.0337415 448.02936896 620 461 C619.48050781 461.66515625 618.96101563 462.3303125 618.42578125 463.015625 C604.386481 480.41445554 582.55602906 490.65531918 562 498 C561.06212646 498.33725098 560.12425293 498.67450195 559.15795898 499.02197266 C552.08438102 501.48039142 545.03862994 503.22336468 537.6875 504.625 C536.59808105 504.83737305 535.50866211 505.04974609 534.38623047 505.26855469 C526.28825615 506.81961436 518.20497924 508.15184484 510 509 C509.27635254 509.08540039 508.55270508 509.17080078 507.80712891 509.25878906 C498.59828792 510.24601928 489.37627965 510.24361354 480.125 510.25 C479.24350281 510.25067474 478.36200562 510.25134949 477.45379639 510.25204468 C439.35609871 510.20600906 403.02498154 503.25833531 367 491 C367.721875 491.92683594 368.44375 492.85367187 369.1875 493.80859375 C370.1251261 495.01813142 371.06261926 496.22777216 372 497.4375 C372.47695312 498.04916016 372.95390625 498.66082031 373.4453125 499.29101562 C377 503.88671875 377 503.88671875 377 505 C363.70893851 505.20872461 350.41826817 505.36854398 337.12590027 505.46630955 C330.9532982 505.513238 324.78181906 505.57686749 318.60986328 505.67895508 C312.65105189 505.77689793 306.69331897 505.83059031 300.73376465 505.85389519 C298.46267724 505.87049791 296.1916475 505.90292111 293.92102051 505.95157051 C276.1373301 506.31736817 276.1373301 506.31736817 270.91235352 503.09689331 C268.85097673 500.81602025 267.45838689 498.69341862 266 496 C264.79518734 494.45980158 263.56806864 492.93661044 262.3125 491.4375 C261.65507813 490.60605469 260.99765625 489.77460937 260.3203125 488.91796875 C257.47286485 485.33708761 254.57961541 481.79482054 251.6875 478.25 C247.59404631 473.22664342 243.54617695 468.17329844 239.5625 463.0625 C234.87928402 457.05709595 230.04918543 451.18149929 225.19165039 445.31665039 C221.10748266 440.37465665 217.12108479 435.36774396 213.18359375 430.30859375 C209.535149 425.63900995 205.77986172 421.06359115 202 416.5 C197.76360164 411.38521235 193.5791878 406.24110156 189.5 401 C184.76866679 394.92202265 179.89119525 388.97277719 174.98266602 383.03735352 C171.33093748 378.62075969 167.71810347 374.17786542 164.15234375 369.69140625 C159.14310183 363.42758105 154.06329638 357.2201576 149 351 C143.81214339 354.15262056 139.83612135 357.9643794 135.625 362.3125 C131.22173942 366.79251515 126.82461825 371.14787089 122.01953125 375.19921875 C118.6743046 378.18209977 115.5720071 381.40851929 112.42333984 384.59619141 C109.10147107 387.94326563 105.67892934 391.08503469 102.08203125 394.13671875 C98.80703449 397.06762579 95.7467783 400.21158848 92.67944336 403.35766602 C89.20406926 406.89796537 89.20406926 406.89796537 87 408 C86.67 440.01 86.34 472.02 86 505 C57.62 505 29.24 505 0 505 C0 338.35 0 171.7 0 0 Z " fill="#4D8C40" transform="translate(1633,297)"/>
<path d="M0 0 C1.40798001 -0.01149834 2.81591716 -0.03191659 4.22363281 -0.06152344 C19.90765484 -0.39064887 19.90765484 -0.39064887 26.87255859 4.29516602 C30.31439454 7.82094918 31.12495368 10.56629658 31.31005859 15.35766602 C31.12639155 19.43507437 30.64238261 22.1432973 27.87255859 25.29516602 C24.22018029 28.28347554 20.47491496 28.87848957 15.96240234 29.71313477 C2.62634335 31.44494181 2.62634335 31.44494181 -8.10400391 38.20532227 C-19.4815351 61.43806727 -18.33745148 92.69885435 -18.31494141 117.98266602 C-18.31503204 119.54262299 -18.31503204 119.54262299 -18.31512451 121.13409424 C-18.30177886 137.27023056 -17.85948337 153.23890451 -16.12744141 169.29516602 C-16.03140625 170.19960449 -15.93537109 171.10404297 -15.83642578 172.03588867 C-15.32135586 176.79678155 -14.75681708 181.5480665 -14.12744141 186.29516602 C-9.21972275 184.85082971 -5.08963958 182.76875577 -0.68994141 180.23266602 C-0.07957031 179.8878418 0.53080078 179.54301758 1.15966797 179.18774414 C9.8313542 174.25102147 18.34474082 169.03312099 26.88354492 163.87109375 C30.25732113 161.83177787 33.63573334 159.80032078 37.0168457 157.77319336 C38.38609844 156.95023467 39.75359947 156.12435485 41.11938477 155.2956543 C48.71307316 150.69128748 56.14227948 146.45581794 64.45556641 143.24072266 C67.10741942 142.24860871 67.10741942 142.24860871 70.43505859 140.48266602 C78.14874717 137.81793723 85.34297831 138.79158961 92.70458984 142.08032227 C96.34852937 144.12224153 98.97774065 146.50553012 100.87255859 150.29516602 C101.47555821 156.44576212 100.0908218 159.27846161 96.87255859 164.29516602 C96.5718042 164.98497559 96.2710498 165.67478516 95.96118164 166.38549805 C94.65085221 168.68408446 93.74366341 169.15387755 91.32958984 170.16235352 C90.59796631 170.48276611 89.86634277 170.80317871 89.11254883 171.13330078 C88.31147705 171.47546631 87.51040527 171.81763184 86.68505859 172.17016602 C75.89296102 177.0375949 66.00493181 183.08152791 55.98486328 189.35668945 C52.73385288 191.38155787 49.4660236 193.37661988 46.19287109 195.36547852 C30.65709255 204.81668121 15.40860214 214.3549058 1.29736328 225.85693359 C-1.18352486 227.86532464 -3.06856868 229.27554177 -6.12744141 230.29516602 C-4.87936832 241.07593523 -1.50439028 251.04204672 1.87255859 261.29516602 C5.95019571 273.76937574 5.95019571 273.76937574 6.43505859 278.79516602 C6.6103473 282.20252396 6.6103473 282.20252396 8.17602539 284.36889648 C10.60925601 288.56586039 11.9496406 293.01716252 13.45458984 297.61547852 C13.79125168 298.62875214 14.12791351 299.64202576 14.47477722 300.68600464 C15.55050131 303.92889191 16.61773138 307.17450673 17.68505859 310.42016602 C18.39091751 312.54924516 19.09729288 314.67815316 19.80419922 316.80688477 C21.18892352 320.98171319 22.56042994 325.16054275 23.921875 329.34301758 C25.16637986 333.1647254 26.44415767 336.97195503 27.75683594 340.77075195 C28.32034511 342.44288665 28.88367024 344.11508338 29.44677734 345.78735352 C29.70981155 346.52229034 29.97284576 347.25722717 30.24385071 348.01443481 C31.97869412 353.25597293 32.24007708 357.90262262 30.87255859 363.29516602 C27.65369858 368.46485027 23.6758882 371.58774012 17.87255859 373.29516602 C9.5081079 374.42580901 3.47748583 372.60149239 -4.12744141 369.29516602 C-3.81516602 369.92382568 -3.50289062 370.55248535 -3.18115234 371.20019531 C8.30164077 394.43139019 8.30164077 394.43139019 10.87255859 405.29516602 C11.03804199 405.96290039 11.20352539 406.63063477 11.37402344 407.31860352 C11.93135664 409.5780896 12.46869594 411.84135316 12.99755859 414.10766602 C13.15667725 414.78224854 13.3157959 415.45683105 13.47973633 416.15185547 C16.88577646 431.59843601 17.15405932 446.85288044 17.09960938 462.59204102 C17.09904413 464.8997904 17.09936403 467.20754013 17.10049438 469.51528931 C17.10106447 475.73318389 17.08936632 481.95100015 17.07534647 488.16887665 C17.06278129 494.68443904 17.06166407 501.20000354 17.05929565 507.71557617 C17.05380047 518.63632592 17.04133727 529.557047 17.0234375 540.4777832 C17.0050334 551.71801615 16.99089917 562.95824132 16.98242188 574.19848633 C16.98189643 574.89323972 16.98137098 575.58799311 16.98082961 576.30379963 C16.97821923 579.7897421 16.97569189 583.27568463 16.9732058 586.7616272 C16.95252754 615.6061624 16.91568735 644.45065481 16.87255859 673.29516602 C-9.52744141 673.29516602 -35.92744141 673.29516602 -63.12744141 673.29516602 C-63.45744141 659.43516602 -63.78744141 645.57516602 -64.12744141 631.29516602 C-66.43744141 634.26516602 -68.74744141 637.23516602 -71.12744141 640.29516602 C-93.26260958 665.07282713 -127.61892123 676.40563512 -160.12744141 678.29516602 C-205.1404398 679.86476635 -248.25623578 673.08050605 -282.70947266 641.96313477 C-296.28647432 629.0535126 -305.63054001 612.45327022 -310.12744141 594.29516602 C-310.30404297 593.61268799 -310.48064453 592.93020996 -310.66259766 592.22705078 C-312.47156896 584.45412721 -312.52422037 576.67046498 -312.50244141 568.73266602 C-312.50222992 568.02306732 -312.50201843 567.31346863 -312.50180054 566.58236694 C-312.46934414 555.67778798 -311.67680644 545.6630481 -308.12744141 535.29516602 C-307.77681641 534.17110352 -307.42619141 533.04704102 -307.06494141 531.88891602 C-302.62980332 518.9530966 -294.73399611 507.91762561 -285.12744141 498.29516602 C-284.30759766 497.4637207 -283.48775391 496.63227539 -282.64306641 495.77563477 C-250.00229253 464.3419901 -200.92022421 461.10697634 -158.16650391 461.19750977 C-155.5633446 461.19937779 -152.96018493 461.20079988 -150.35702515 461.20179749 C-144.24114421 461.20520596 -138.12528429 461.21306117 -132.00941122 461.22314698 C-125.03703313 461.23439142 -118.0646541 461.23983939 -111.09226918 461.24484241 C-96.7706502 461.25524654 -82.44904645 461.27279359 -68.12744141 461.29516602 C-68.26316692 458.63468047 -68.40465614 455.97470018 -68.54931641 453.31469727 C-68.60514893 452.20294128 -68.60514893 452.20294128 -68.66210938 451.06872559 C-69.74429833 431.57340978 -75.62293693 412.10760666 -90.12744141 398.29516602 C-109.70023361 382.26249623 -133.58812307 377.86176523 -158.18994141 377.98266602 C-158.96056915 377.98448883 -159.7311969 377.98631165 -160.525177 377.9881897 C-172.61814605 378.03627027 -184.28615667 378.66828586 -196.12744141 381.29516602 C-196.95195801 381.47208984 -197.77647461 381.64901367 -198.62597656 381.83129883 C-210.16526295 384.35681265 -221.25228305 387.68057179 -232.12744141 392.29516602 C-232.8193457 392.58762207 -233.51125 392.88007812 -234.22412109 393.18139648 C-245.34048892 397.96037209 -257.46990689 403.6376315 -266.12744141 412.29516602 C-267.11744141 412.29516602 -268.10744141 412.29516602 -269.12744141 412.29516602 C-269.70691528 411.21138672 -269.70691528 411.21138672 -270.2980957 410.10571289 C-271.79743195 407.30228838 -273.29732369 404.49916191 -274.7975769 401.69622803 C-275.47446002 400.43139446 -276.15115756 399.16646157 -276.82766724 397.90142822 C-280.53243537 390.97438576 -284.24991908 384.05516454 -288.01806641 377.16235352 C-288.61659424 376.06600586 -289.21512207 374.9696582 -289.83178711 373.84008789 C-290.97262019 371.7535156 -292.11690043 369.66882373 -293.26489258 367.58618164 C-293.77511963 366.65225586 -294.28534668 365.71833008 -294.81103516 364.75610352 C-295.48477173 363.53093018 -295.48477173 363.53093018 -296.17211914 362.28100586 C-297.12744141 360.29516602 -297.12744141 360.29516602 -297.12744141 358.29516602 C-300.27491381 359.77086328 -303.42013279 361.25130156 -306.56494141 362.73266602 C-307.46277344 363.15354492 -308.36060547 363.57442383 -309.28564453 364.00805664 C-310.13964844 364.41088867 -310.99365234 364.8137207 -311.87353516 365.22875977 C-312.66429443 365.60057373 -313.45505371 365.9723877 -314.26977539 366.35546875 C-316.09242134 367.1562139 -316.09242134 367.1562139 -317.12744141 368.29516602 C-324.58658966 369.10768038 -330.71786052 368.27040103 -337.12744141 364.29516602 C-346.59439277 356.30085153 -349.76930875 346.15026222 -351.12744141 334.29516602 C-351.39436307 328.53775563 -351.3856137 322.79193203 -351.35791016 317.02954102 C-351.35671157 315.34889766 -351.35626662 313.66825363 -351.35652161 311.98760986 C-351.35496335 308.46085407 -351.34674678 304.93420067 -351.33325195 301.4074707 C-351.31662597 297.02020349 -351.31251396 292.63305097 -351.31307507 288.24575615 C-351.31247758 270.45963295 -351.13457625 252.69138066 -350.62744141 234.91235352 C-350.007261 213.05414308 -349.9399552 191.20019954 -349.94213867 169.33422852 C-349.94224152 163.73472273 -349.92840343 158.13534023 -349.91136646 152.53586388 C-349.90014901 148.12233942 -349.89822215 143.7088444 -349.8987484 139.29530716 C-349.8975901 137.23133531 -349.89329409 135.16736214 -349.88541603 133.103405 C-349.84242209 120.7212312 -350.36399949 108.55220401 -351.63700867 96.23257446 C-352.45956007 88.27026706 -352.86305023 80.2933856 -353.12744141 72.29516602 C-353.16144043 71.34947754 -353.19543945 70.40378906 -353.23046875 69.42944336 C-353.32616946 66.44717615 -353.38807895 63.46599201 -353.43994141 60.48266602 C-353.46975098 59.55711914 -353.49956055 58.63157227 -353.53027344 57.67797852 C-353.59073681 50.68995616 -351.74102668 47.2255495 -347.06494141 41.98266602 C-343.04375557 38.48034287 -338.33090135 38.95623045 -333.26025391 39.02954102 C-325.04165536 39.7263798 -320.25023401 43.60342689 -314.85400391 49.58813477 C-310.07839393 57.07568616 -309.61416175 64.97618176 -309.39697266 73.65844727 C-309.35668945 74.88224594 -309.31640625 76.10604462 -309.27490234 77.3669281 C-309.16932013 80.73843522 -309.07733776 84.10971059 -308.99371719 87.48179626 C-308.93957124 89.6222996 -308.88052145 91.76261762 -308.82015991 93.9029541 C-308.10266792 119.61419199 -307.9433986 145.32503492 -307.93994141 171.04516602 C-307.93941898 171.91642246 -307.93889656 172.78767891 -307.93835831 173.68533707 C-307.92739894 193.53194233 -308.12113637 213.35603722 -308.70102501 233.19451141 C-309.13094408 247.95522896 -309.28250023 262.69997866 -309.2578125 277.46704102 C-309.25321267 280.74546652 -309.25554935 284.02374077 -309.26138496 287.30215454 C-309.26584921 290.50816129 -309.26274125 293.71415825 -309.26025391 296.92016602 C-309.26227814 298.08241699 -309.26430237 299.24466797 -309.26638794 300.44213867 C-309.26323578 301.52027832 -309.26008362 302.59841797 -309.25683594 303.70922852 C-309.25604034 304.64718262 -309.25524475 305.58513672 -309.25442505 306.55151367 C-309.11662627 309.52884166 -308.67082458 312.3669176 -308.12744141 315.29516602 C-299.1915504 314.99127888 -291.65551236 311.58955697 -283.52587891 308.21313477 C-281.9832923 307.58257702 -280.44017834 306.95330804 -278.89657593 306.32524109 C-275.63796576 304.99867833 -272.38138205 303.66729922 -269.12585449 302.33319092 C-261.75223174 299.31865888 -254.34581253 296.38666338 -246.94141388 293.4487648 C-242.83765169 291.81916994 -238.73654278 290.18292647 -234.63525391 288.54711914 C-229.6329811 286.55220918 -224.6302279 284.55853876 -219.62548828 282.56982422 C-215.46635912 280.91702577 -211.30892328 279.26003456 -207.15262985 277.60011864 C-205.59436651 276.97864735 -204.03550148 276.35868236 -202.47600174 275.74032021 C-200.32384963 274.88671323 -198.17391235 274.02774409 -196.02441406 273.16748047 C-194.80871735 272.68342239 -193.59302063 272.19936432 -192.34048462 271.70063782 C-189.42542821 270.42551348 -186.83555025 268.95142026 -184.12744141 267.29516602 C-182.05029297 266.90698242 -182.05029297 266.90698242 -180.01806641 266.89672852 C-179.26734863 266.89060547 -178.51663086 266.88448242 -177.74316406 266.87817383 C-176.96247559 266.89203125 -176.18178711 266.90588867 -175.37744141 266.92016602 C-174.57483887 266.92886719 -173.77223633 266.93756836 -172.9453125 266.9465332 C-165.96869808 267.11942513 -160.60372467 268.2602685 -154.56494141 271.79516602 C-152.08710653 276.10444406 -152.36516584 280.47410737 -153.12744141 285.29516602 C-157.59625819 296.86267848 -168.59265845 301.02777454 -179.12744141 306.29516602 C-162.62744141 306.29516602 -146.12744141 306.29516602 -129.12744141 306.29516602 C-129.40330078 301.43797852 -129.67916016 296.58079102 -129.96337891 291.57641602 C-130.05939392 289.88492432 -130.15540894 288.19343262 -130.2543335 286.45068359 C-130.74080029 277.91216925 -131.24040716 269.3746252 -131.76123047 260.83813477 C-134.37522141 217.90162098 -136.65387333 174.98908323 -136.86003876 131.96389771 C-136.87738963 129.24079188 -136.90782007 126.51811215 -136.94171143 123.79516602 C-136.99208687 119.54688289 -137.00573181 115.30009713 -136.9889183 111.05156136 C-136.98753661 109.50411772 -136.99744998 107.95661527 -137.01965714 106.40933037 C-137.16941033 94.80737043 -137.16941033 94.80737043 -134.58166504 91.05178833 C-129.22081841 86.33485149 -124.61223775 85.88551058 -117.59228516 85.95532227 C-110.78005589 86.62348906 -105.39975617 89.62985437 -100.62744141 94.48266602 C-92.34226668 105.3584165 -95.0061933 124.92363343 -95.20422745 138.00248146 C-95.26876809 142.45769145 -95.30565556 146.91315992 -95.3449707 151.36865234 C-95.35343773 152.30507537 -95.36190475 153.24149839 -95.37062836 154.20629787 C-95.64365647 185.63732485 -95.3355447 216.80343753 -92.31494141 248.10766602 C-92.24923069 248.79147591 -92.18351997 249.4752858 -92.11581802 250.1798172 C-90.96292178 262.09565782 -89.62116972 273.98917798 -88.25878906 285.88256836 C-88.11943436 287.10965012 -87.98007965 288.33673187 -87.83650208 289.60099792 C-87.57310061 291.91120707 -87.30526959 294.22091753 -87.0320282 296.52998352 C-86.38521938 302.16351058 -85.98528297 307.62462414 -86.12744141 313.29516602 C-85.58144287 313.40473633 -85.03544434 313.51430664 -84.47290039 313.62719727 C-64.69133136 317.78329077 -45.22513717 326.749324 -30.12744141 340.29516602 C-29.24314453 341.0724707 -28.35884766 341.84977539 -27.44775391 342.65063477 C-23.56570447 346.09946999 -19.77470714 349.59793773 -16.12744141 353.29516602 C-17.45073914 347.03053912 -19.04370617 340.93813544 -20.92041016 334.81860352 C-21.18739716 333.93839035 -21.45438416 333.05817719 -21.72946167 332.15129089 C-22.58808679 329.32326427 -23.45139888 326.49669456 -24.31494141 323.67016602 C-24.90758776 321.72225308 -25.49995333 319.7742547 -26.09204102 317.82617188 C-27.24958618 314.01925023 -28.40891255 310.21287875 -29.56982422 306.40698242 C-30.85313845 302.19841253 -32.12943713 297.98780599 -33.40087891 293.77563477 C-37.45939645 278.72746385 -37.45939645 278.72746385 -43.12744141 264.29516602 C-45.35057529 264.08904764 -47.58309634 263.9808013 -49.81494141 263.92016602 C-56.34623592 263.52934819 -59.92176588 262.66338284 -64.51416016 257.83813477 C-69.87718302 251.76823783 -70.97569623 246.84021372 -70.90869141 238.79125977 C-69.92753854 234.4006007 -68.5480432 233.21190078 -64.93994141 230.60766602 C-62.16747133 228.93379185 -59.44159608 227.43450367 -56.48144531 226.12158203 C-53.81602304 224.46611295 -53.81602304 224.46611295 -53.52807617 221.25854492 C-53.54153076 220.02539551 -53.55498535 218.79224609 -53.56884766 217.52172852 C-53.57105316 216.51524765 -53.57105316 216.51524765 -53.57330322 215.48843384 C-53.58609392 213.29785416 -53.63658119 211.11010496 -53.68994141 208.92016602 C-53.71072965 207.40162486 -53.73049954 205.88306942 -53.74926758 204.36450195 C-53.89952061 194.83711978 -54.36057921 185.3746988 -55.46508789 175.90625 C-55.62178452 174.55859558 -55.62178452 174.55859558 -55.78164673 173.18371582 C-56.01329782 171.24864926 -56.25244763 169.3144665 -56.49887085 167.38122559 C-59.05104627 147.27809687 -59.60121128 127.44246667 -59.51855469 107.19824219 C-59.50131404 102.92851424 -59.51145528 98.65934642 -59.52927208 94.38963795 C-59.54023021 91.02363528 -59.53661177 87.65776078 -59.5288887 84.29175377 C-59.52692761 82.71850195 -59.52919656 81.14523739 -59.53632736 79.5720005 C-59.61762969 56.65954274 -55.97754375 31.42873222 -39.84228516 13.88110352 C-27.97110558 2.90229052 -15.68474871 0.08901467 0 0 Z " fill="#4D8C40" transform="translate(1222.12744140625,128.704833984375)"/>
<path d="M0 0 C1.49461067 0.79721442 2.98941009 1.59407507 4.484375 2.390625 C5.96987117 3.19585173 7.45427653 4.00309459 8.9375 4.8125 C9.63125732 5.18576416 10.32501465 5.55902832 11.03979492 5.94360352 C15.88362103 8.65086308 15.88362103 8.65086308 17 12 C16.40808105 14.1065979 16.40808105 14.1065979 15.38867188 16.56884766 C15.01077515 17.49476715 14.63287842 18.42068665 14.24353027 19.37466431 C13.82285278 20.37766571 13.40217529 21.38066711 12.96875 22.4140625 C12.3256488 23.97862686 12.3256488 23.97862686 11.66955566 25.57479858 C10.28858654 28.92861198 8.89452111 32.27680197 7.5 35.625 C6.59027471 37.82776543 5.68141079 40.03088682 4.7734375 42.234375 C3.0099403 46.51122365 1.23841373 50.78460786 -0.5390625 55.05566406 C-2.09883472 58.80905474 -3.63748259 62.56947271 -5.1484375 66.34277344 C-5.47017944 67.14170013 -5.79192139 67.94062683 -6.12341309 68.76376343 C-6.7111574 70.22670305 -7.29362461 71.69177848 -7.86975098 73.15933228 C-9.77691505 77.88845752 -9.77691505 77.88845752 -12 79 C-13.94165039 78.1706543 -13.94165039 78.1706543 -16.34765625 76.82421875 C-17.24991943 76.33074951 -18.15218262 75.83728027 -19.08178711 75.32885742 C-20.06542236 74.78720947 -21.04905762 74.24556152 -22.0625 73.6875 C-49.40273943 59.07435386 -78.48882543 50.11868579 -109 45 C-109.79051758 44.86722656 -110.58103516 44.73445313 -111.39550781 44.59765625 C-146.64393229 39.04279166 -189.89601163 40.72591203 -220.53515625 60.6484375 C-232.19635137 69.16931078 -240.36247539 80.22686614 -243.375 94.5 C-245.32187038 108.49313083 -244.02731606 121.4710228 -235.4921875 133.1484375 C-213.02700524 161.0240825 -170.18511532 167.1942787 -137.39453125 175.02734375 C-135.75346153 175.41954605 -135.75346153 175.41954605 -134.07923889 175.81967163 C-128.65947366 177.11272757 -123.237715 178.39621727 -117.81176758 179.66308594 C-105.05258982 182.66022944 -92.49494402 186.04251021 -80 190 C-79.30690735 190.21834503 -78.6138147 190.43669006 -77.89971924 190.66165161 C-38.1023134 203.24022211 3.47084172 220.44636139 24.1875 259.375 C31.3418153 273.41079654 36.4833169 289.15505174 37 305 C37.02578125 305.66773438 37.0515625 306.33546875 37.078125 307.0234375 C38.24548927 341.22721047 29.27830299 372.66729666 7 399 C6.32324219 399.81210937 5.64648438 400.62421875 4.94921875 401.4609375 C-26.14083223 437.49584119 -75.17907923 452.21418133 -121 457 C-121.83305664 457.0942627 -122.66611328 457.18852539 -123.52441406 457.28564453 C-133.98512038 458.33022024 -144.4979475 458.24377178 -155 458.25 C-156.02333435 458.25067474 -157.0466687 458.25134949 -158.10101318 458.25204468 C-174.59214285 458.23481307 -190.6783701 457.54134447 -207 455 C-208.13421387 454.82839355 -209.26842773 454.65678711 -210.43701172 454.47998047 C-256.47157285 447.35019861 -307.61266979 433.09548554 -343 401 C-341.02007954 394.64096135 -338.61236682 388.61443968 -335.83203125 382.56640625 C-335.23427132 381.2511924 -335.23427132 381.2511924 -334.62443542 379.90940857 C-333.35801606 377.12515754 -332.08551027 374.34374281 -330.8125 371.5625 C-329.56317418 368.82272484 -328.31514418 366.08236249 -327.06735229 363.34188843 C-326.24781264 361.54203528 -325.42776956 359.74241128 -324.60720825 357.94302368 C-320.67952572 349.32127432 -316.82947893 340.66573485 -313 332 C-309.71913841 333.56953422 -306.84082268 335.4677867 -303.87646484 337.57836914 C-268.82117022 362.47797643 -226.66797695 377.42125883 -184 382 C-183.12593506 382.0942627 -182.25187012 382.18852539 -181.35131836 382.28564453 C-173.50615949 383.03709399 -165.69242622 383.15385864 -157.81958008 383.13037109 C-155.70060996 383.12503303 -153.58185419 383.13034002 -151.46289062 383.13671875 C-123.91828624 383.15369496 -93.64797341 380.37542934 -71 363 C-70.27941406 362.47019531 -69.55882812 361.94039062 -68.81640625 361.39453125 C-59.59770731 354.05791073 -54.02576683 343.5155198 -52 332 C-50.6016435 316.6609526 -52.44350204 304.46662995 -62 292 C-77.9767258 273.81618013 -106.09361786 266.8951281 -128.41796875 260.72119141 C-131.58370729 259.83696375 -134.72743297 258.88410741 -137.875 257.9375 C-144.07599209 256.17214579 -150.34056885 254.74324534 -156.625 253.3125 C-161.41820695 252.21493423 -166.20979335 251.11058876 -171 250 C-171.671521 249.84444641 -172.34304199 249.68889282 -173.03491211 249.52862549 C-202.91756156 242.58553007 -233.46147897 234.83574487 -261 221 C-261.69464355 220.66468262 -262.38928711 220.32936523 -263.10498047 219.98388672 C-274.38946889 214.52806865 -284.27667685 207.89227194 -294 200 C-294.93585938 199.24976563 -295.87171875 198.49953125 -296.8359375 197.7265625 C-317.56771933 180.13397791 -329.75319527 154.00421777 -332.82348633 127.23950195 C-335.7610795 89.96904258 -327.32184394 55.14202529 -302.671875 26.2734375 C-267.92273719 -12.84889112 -216.3132064 -28.81216645 -165.24291992 -31.88934326 C-109.35242607 -34.64675769 -49.68227519 -27.28158028 0 0 Z " fill="#4D8C40" transform="translate(463,351)"/>
<path d="M0 0 C13.60815295 7.59737687 24.22501068 18.6086091 33.0625 31.3125 C33.8359375 32.42044922 33.8359375 32.42044922 34.625 33.55078125 C38.34475744 39.78912446 38.01665143 47.04093464 36.47265625 53.953125 C31.68678691 67.97991257 17.2578939 78.15312398 5.65234375 86.421875 C0.03207648 90.52475488 -4.84821398 95.20203523 -9.6875 100.1875 C-14.99828491 105.55504139 -20.83843271 109.88842286 -26.9375 114.3125 C-29.30387508 116.06749556 -31.65426621 117.84254555 -34 119.625 C-34.54825439 120.03363281 -35.09650879 120.44226563 -35.66137695 120.86328125 C-39.6674112 123.91024772 -42.47228214 126.2297581 -43.59326172 131.24829102 C-43.72490723 132.40514404 -43.85655273 133.56199707 -43.9921875 134.75390625 C-44.06847382 135.40025528 -44.14476013 136.04660431 -44.22335815 136.71253967 C-44.47698754 138.91109549 -44.70900846 141.11119467 -44.9375 143.3125 C-45.02326294 144.11790222 -45.10902588 144.92330444 -45.1973877 145.75311279 C-45.85083498 151.91569418 -46.46041415 158.08222373 -47.0625 164.25 C-47.2458596 166.10874707 -47.42945192 167.9674712 -47.61328125 169.82617188 C-48.05736306 174.32135538 -48.49832162 178.81683489 -48.9375 183.3125 C-47.67808594 183.02761719 -46.41867187 182.74273437 -45.12109375 182.44921875 C-44.05846313 182.20884888 -44.05846313 182.20884888 -42.97436523 181.96362305 C-40.35776331 181.12717604 -38.55368127 179.6382775 -36.5546875 177.78515625 C-34.67053323 176.06939258 -32.66770962 174.58569696 -30.625 173.0625 C-26.5365066 169.90695141 -22.93925302 166.44688522 -19.37109375 162.71875 C-16.70516273 160.08277326 -13.9079316 157.65045614 -11.07641602 155.1953125 C-7.52971533 152.07327669 -4.11420704 148.81498112 -0.6875 145.5625 C5.17403327 140.02158891 11.07181298 134.52928047 17.03125 129.09375 C21.26785283 125.21963725 25.45753288 121.29418712 29.63061523 117.35180664 C32.30218655 114.8370427 34.95968666 112.39547984 37.81640625 110.08984375 C46.4361066 103.13043881 51.43274475 93.68461325 57.0625 84.3125 C63.44645167 73.75823525 70.66820566 64.74070907 83.0625 61.3125 C89.36550625 60.4378339 94.83399289 60.82654099 100.40625 64.03515625 C103.9492554 66.7676156 105.67658999 70.15476997 107.0625 74.3125 C107.65459844 85.54860056 108.08511789 98.85121846 101.0625 108.3125 C95.13856765 114.53942007 88.32172494 119.74789305 81.54199219 124.99536133 C71.2592676 132.98916146 61.58303785 141.72781223 52.0390625 150.58203125 C48.10281619 154.22085331 44.07621792 157.75969014 40.0625 161.3125 C40.61134857 161.30805878 41.16019714 161.30361755 41.72567749 161.29904175 C47.53519027 161.25414968 53.34465238 161.22436639 59.15429688 161.20263672 C61.31089281 161.19269405 63.4674757 161.1791352 65.62402344 161.16162109 C83.44794756 161.02068774 100.52048298 161.82501387 117.9375 165.9375 C119.039729 166.19692383 120.14195801 166.45634766 121.27758789 166.72363281 C161.07915959 176.52501819 195.49914615 200.38285476 217.0625 235.3125 C222.0625 243.61587079 222.0625 243.61587079 222.0625 246.3125 C221.35569092 246.71339844 220.64888184 247.11429688 219.9206543 247.52734375 C205.20973636 255.88014305 190.56009886 264.32018078 176.03588867 272.99414062 C173.04973387 274.77549284 170.05714351 276.54546786 167.0625 278.3125 C166.18513184 278.84053223 165.30776367 279.36856445 164.40380859 279.91259766 C163.60410645 280.38101074 162.8044043 280.84942383 161.98046875 281.33203125 C161.29106201 281.74171143 160.60165527 282.1513916 159.89135742 282.57348633 C158.0625 283.3125 158.0625 283.3125 155.0625 282.3125 C153.5546875 280.37890625 153.5546875 280.37890625 151.9375 277.875 C137.01783715 255.90297551 114.93940741 241.69901106 89.0625 236.3125 C60.9439175 230.98701089 32.96876199 235.2696076 8.0625 249.3125 C7.07765625 249.85648438 6.0928125 250.40046875 5.078125 250.9609375 C-16.28159083 263.61626046 -31.09129321 285.68311637 -37.9375 309.3125 C-46.30458878 342.44164883 -43.93440213 379.48795978 -27.1875 409.6875 C-13.14584601 432.91857619 8.72613303 448.3267319 34.6875 455.625 C64.57383234 462.87111388 93.97796215 460.43611237 120.90234375 445.2890625 C135.58652483 436.10464269 146.37513866 424.5300679 156.0625 410.3125 C159.08280065 410.94322349 161.42837885 411.93532527 164.09765625 413.47265625 C165.29152954 414.15666504 165.29152954 414.15666504 166.50952148 414.85449219 C167.37262939 415.35625977 168.2357373 415.85802734 169.125 416.375 C170.48830444 417.16052246 170.48830444 417.16052246 171.87915039 417.96191406 C180.78890229 423.11385719 189.6362662 428.37212705 198.48193359 433.63305664 C206.29561514 438.27754871 214.1379916 442.85954149 222.0625 447.3125 C213.57155692 475.35710526 183.74823178 498.79332529 159.4609375 512.5625 C130.78900049 527.32689975 99.52612679 533.5352593 67.4375 533.5625 C66.71695435 533.56317474 65.99640869 533.56384949 65.25402832 533.56454468 C11.59367778 533.4854018 -37.94450579 515.43030071 -76.9375 478.3125 C-77.69417969 477.62027344 -78.45085937 476.92804688 -79.23046875 476.21484375 C-97.15140655 459.27319217 -109.25848043 437.13548855 -117.9375 414.3125 C-118.40800781 413.09691406 -118.87851563 411.88132812 -119.36328125 410.62890625 C-131.38178181 377.25245114 -133.28482916 336.75722608 -124.9375 302.3125 C-124.72851074 301.42546387 -124.51952148 300.53842773 -124.30419922 299.62451172 C-116.41581405 267.06054866 -99.92489102 237.73903476 -75.9375 214.3125 C-77.23081403 211.50625258 -78.66827592 209.38569329 -80.6875 207.0625 C-88.71624203 196.3282385 -90.88759389 184.09819563 -90.55493164 171.03076172 C-90.49999796 168.81241744 -90.493407 166.59786319 -90.49414062 164.37890625 C-90.42599374 155.51222582 -89.40228923 147.24359688 -87.47631836 138.58789062 C-86.98428735 135.59691281 -86.76906314 134.05517345 -87.9375 131.3125 C-90.20327214 128.72085441 -90.20327214 128.72085441 -92.9375 126.1875 C-99.08638816 120.30063832 -99.08638816 120.30063832 -99.3125 114.5 C-99.23660297 110.98343742 -99.06657757 109.53240993 -97.25 106.4375 C-93.01332485 103.71963293 -88.77284621 102.66004235 -83.8984375 101.5 C-80.22448573 100.02654177 -79.7377362 98.76136588 -77.9375 95.3125 C-77.27540854 93.66267528 -76.66513877 91.99127929 -76.10327148 90.3046875 C-75.77540146 89.33176758 -75.44753143 88.35884766 -75.10972595 87.35644531 C-74.76285233 86.31069336 -74.4159787 85.26494141 -74.05859375 84.1875 C-73.29401863 81.92955241 -72.52903037 79.67174468 -71.76367188 77.4140625 C-70.57635387 73.89072242 -69.39289783 70.36621238 -68.2175293 66.83886719 C-50.44157436 13.62052069 -50.44157436 13.62052069 -29.02734375 0.35546875 C-19.61309581 -4.34285686 -9.52748474 -4.36901684 0 0 Z " fill="#4D8C40" transform="translate(1395.9375,273.6875)"/>
<path d="M0 0 C0.83176758 0.20367187 1.66353516 0.40734375 2.52050781 0.6171875 C26.53650173 6.57749545 47.14975544 17.93266091 65 35 C65.67289063 35.60972656 66.34578125 36.21945312 67.0390625 36.84765625 C73.37791081 42.79506174 78.20451978 49.79760854 83 57 C83.63035156 57.94617188 84.26070312 58.89234375 84.91015625 59.8671875 C108.06005844 97.09687075 107.60260644 140.77958242 107.40557575 182.97939849 C107.38028237 189.32538469 107.37819838 195.67138144 107.37347412 202.01741028 C107.36252148 212.63706934 107.33767138 223.25662284 107.30175781 233.8762207 C107.26485897 244.79874088 107.23663561 255.72122864 107.21972656 266.64379883 C107.21867567 267.32072728 107.21762477 267.99765573 107.21654204 268.69509717 C107.21132066 272.09214216 107.20626612 275.48918737 107.20129442 278.88623273 C107.16004515 306.92425592 107.08642497 334.96207767 107 363 C78.95 363 50.9 363 22 363 C21.97812622 353.56152466 21.97812622 353.56152466 21.95581055 343.93237305 C21.905396 323.10535959 21.83893696 302.27841992 21.76428509 281.45147991 C21.71942839 268.82842026 21.67999063 256.20538819 21.65356445 243.58227539 C21.6305021 232.57267593 21.59701286 221.56316448 21.55129844 210.55363494 C21.52747686 204.73081388 21.50867587 198.90807938 21.50238609 193.0852108 C21.49628482 187.58995621 21.47610563 182.0949228 21.44572449 176.59975052 C21.43702431 174.59688803 21.43320475 172.59399654 21.43499184 170.59111595 C21.4526048 141.70936919 16.83079031 112.81540679 -3.79296875 91.11328125 C-14.27141984 81.17104088 -27.17971927 76.21601854 -41 73 C-42.05445313 72.75378906 -43.10890625 72.50757813 -44.1953125 72.25390625 C-71.65461998 67.05599557 -102.65633095 72.16411756 -125.90625 87.9765625 C-128.3774193 89.890956 -130.69717677 91.88705869 -133 94 C-133.75539063 94.66386719 -134.51078125 95.32773437 -135.2890625 96.01171875 C-153.67616767 113.10351239 -162.41129825 139.46022811 -164 164 C-164.20731683 170.46471955 -164.18522551 176.93547732 -164.20532227 183.40283203 C-164.21491357 185.36487529 -164.22492436 187.32691653 -164.23532104 189.28895569 C-164.26224055 194.59190046 -164.28331985 199.89485401 -164.30332303 205.19782877 C-164.32526295 210.74850959 -164.3526123 216.29916374 -164.37937927 221.849823 C-164.42919828 232.35030965 -164.47417695 242.85081118 -164.51740164 253.35132682 C-164.56686651 265.31023638 -164.6217502 277.26911916 -164.67708123 289.22800279 C-164.79073552 313.81864473 -164.89689508 338.40931141 -165 363 C-193.05 363 -221.1 363 -250 363 C-250 243.21 -250 123.42 -250 0 C-223.27 0 -196.54 0 -169 0 C-168.67 14.52 -168.34 29.04 -168 44 C-164.04 40.04 -160.08 36.08 -156 32 C-136.92374898 16.16671165 -114.98366974 6.02686981 -91 0 C-90.16726563 -0.21317871 -89.33453125 -0.42635742 -88.4765625 -0.64599609 C-61.02958631 -7.30188782 -27.26266534 -7.17846694 0 0 Z " fill="#4D8C40" transform="translate(775,439)"/>
<path d="M0 0 C-0.69690794 4.04509608 -1.89392261 7.7541715 -3.25 11.625 C-7.41477947 23.89092271 -10.63423979 36.327707 -12.90234375 49.08203125 C-13.1565509 50.49607742 -13.1565509 50.49607742 -13.41589355 51.93869019 C-15.59686228 64.18846451 -17.54322461 76.47747488 -19.5 88.76464844 C-25.45871104 126.11133539 -25.45871104 126.11133539 -30.6875 143.4375 C-31.0270874 144.56929687 -31.3666748 145.70109375 -31.71655273 146.8671875 C-39.89845686 173.3591985 -52.46245135 199.35651744 -77.62890625 213.3984375 C-103.23321089 225.56270738 -132.36381588 223.77578046 -159 216 C-164.99070741 229.7451764 -166.75623159 243.19183966 -168 258 C-172.29 258 -176.58 258 -181 258 C-180.29480458 248.04215438 -178.9015788 238.60730865 -176.125 229 C-175.88056152 228.15348877 -175.63612305 227.30697754 -175.38427734 226.43481445 C-173.80883453 221.19920543 -171.89507735 216.27548367 -169.56982422 211.32421875 C-168.41012718 206.59400631 -171.71444297 202.68564718 -174.07202148 198.73388672 C-179.35425747 189.83783498 -182.8696739 180.83230296 -186 171 C-186.36222656 169.99195313 -186.72445313 168.98390625 -187.09765625 167.9453125 C-193.36049924 147.50295918 -189.38282169 124.90733269 -179.875 106.3125 C-166.47912547 81.65982394 -144.37879499 63.72958354 -121 49 C-120.37351562 48.60490234 -119.74703125 48.20980469 -119.1015625 47.80273438 C-86.42149839 27.42771481 -50.02090277 13.11891227 -13.125 2.4375 C-12.25697754 2.18572998 -11.38895508 1.93395996 -10.49462891 1.67456055 C-9.29459229 1.33871948 -9.29459229 1.33871948 -8.0703125 0.99609375 C-7.37695801 0.80200928 -6.68360352 0.6079248 -5.96923828 0.40795898 C-4 0 -4 0 0 0 Z " fill="#91C699" transform="translate(2197,141)"/>
<path d="M0 0 C13.60815295 7.59737687 24.22501068 18.6086091 33.0625 31.3125 C33.8359375 32.42044922 33.8359375 32.42044922 34.625 33.55078125 C38.34475744 39.78912446 38.01665143 47.04093464 36.47265625 53.953125 C31.68678691 67.97991257 17.2578939 78.15312398 5.65234375 86.421875 C0.03207648 90.52475488 -4.84821398 95.20203523 -9.6875 100.1875 C-14.99828491 105.55504139 -20.83843271 109.88842286 -26.9375 114.3125 C-29.30387508 116.06749556 -31.65426621 117.84254555 -34 119.625 C-34.54825439 120.03363281 -35.09650879 120.44226563 -35.66137695 120.86328125 C-39.6674112 123.91024772 -42.47228214 126.2297581 -43.59326172 131.24829102 C-43.79072998 132.98357056 -43.79072998 132.98357056 -43.9921875 134.75390625 C-44.06847382 135.40025528 -44.14476013 136.04660431 -44.22335815 136.71253967 C-44.47698754 138.91109549 -44.70900846 141.11119467 -44.9375 143.3125 C-45.06614441 144.52060333 -45.06614441 144.52060333 -45.1973877 145.75311279 C-45.85083498 151.91569418 -46.46041415 158.08222373 -47.0625 164.25 C-47.2458596 166.10874707 -47.42945192 167.9674712 -47.61328125 169.82617188 C-48.05736306 174.32135538 -48.49832162 178.81683489 -48.9375 183.3125 C-47.67808594 183.02761719 -46.41867187 182.74273437 -45.12109375 182.44921875 C-44.05846313 182.20884888 -44.05846313 182.20884888 -42.97436523 181.96362305 C-40.35776331 181.12717604 -38.55368127 179.6382775 -36.5546875 177.78515625 C-34.67053323 176.06939258 -32.66770962 174.58569696 -30.625 173.0625 C-26.5365066 169.90695141 -22.93925302 166.44688522 -19.37109375 162.71875 C-16.70516273 160.08277326 -13.9079316 157.65045614 -11.07641602 155.1953125 C-7.52971533 152.07327669 -4.11420704 148.81498112 -0.6875 145.5625 C5.17403327 140.02158891 11.07181298 134.52928047 17.03125 129.09375 C21.26785283 125.21963725 25.45753288 121.29418712 29.63061523 117.35180664 C32.30218655 114.8370427 34.95968666 112.39547984 37.81640625 110.08984375 C46.4361066 103.13043881 51.43274475 93.68461325 57.0625 84.3125 C63.44645167 73.75823525 70.66820566 64.74070907 83.0625 61.3125 C89.36550625 60.4378339 94.83399289 60.82654099 100.40625 64.03515625 C103.9492554 66.7676156 105.67658999 70.15476997 107.0625 74.3125 C107.65459844 85.54860056 108.08511789 98.85121846 101.0625 108.3125 C95.13856765 114.53942007 88.32172494 119.74789305 81.54199219 124.99536133 C70.78979328 133.35413126 60.71195876 142.53186785 50.73144531 151.78759766 C49.44343695 152.96444087 48.14357202 154.12831595 46.83886719 155.28662109 C40.64382813 160.792919 34.75220247 166.53292578 28.9375 172.4375 C23.74858262 177.70588012 18.55453858 182.85470606 12.93139648 187.65966797 C11.04709689 189.32612234 9.29589678 191.07160852 7.54296875 192.875 C4.07522545 196.3928013 0.34364245 199.38048679 -3.625 202.3125 C-4.32415527 202.83013916 -5.02331055 203.34777832 -5.74365234 203.88110352 C-21.63122007 215.49069022 -38.33691441 223.26812062 -58.3984375 221.0390625 C-67.39367708 219.36626356 -75.39102752 214.61469039 -80.9375 207.3125 C-83.23896904 203.42978635 -85.19980947 199.47696525 -86.9375 195.3125 C-87.20965332 194.72251221 -87.48180664 194.13252441 -87.76220703 193.5246582 C-90.64136176 186.43429168 -90.39083295 179.08183343 -90.32861328 171.55883789 C-90.31270123 169.27883453 -90.32842869 167.00064855 -90.34765625 164.72070312 C-90.357653 155.70376027 -89.45933707 147.37533084 -87.48291016 138.57250977 C-86.98310586 135.58509402 -86.76978299 134.05346736 -87.9375 131.3125 C-90.20327214 128.72085441 -90.20327214 128.72085441 -92.9375 126.1875 C-99.08638816 120.30063832 -99.08638816 120.30063832 -99.3125 114.5 C-99.23660297 110.98343742 -99.06657757 109.53240993 -97.25 106.4375 C-93.01332485 103.71963293 -88.77284621 102.66004235 -83.8984375 101.5 C-80.22448573 100.02654177 -79.7377362 98.76136588 -77.9375 95.3125 C-77.27540854 93.66267528 -76.66513877 91.99127929 -76.10327148 90.3046875 C-75.77540146 89.33176758 -75.44753143 88.35884766 -75.10972595 87.35644531 C-74.76285233 86.31069336 -74.4159787 85.26494141 -74.05859375 84.1875 C-73.29401863 81.92955241 -72.52903037 79.67174468 -71.76367188 77.4140625 C-70.57635387 73.89072242 -69.39289783 70.36621238 -68.2175293 66.83886719 C-50.44157436 13.62052069 -50.44157436 13.62052069 -29.02734375 0.35546875 C-19.61309581 -4.34285686 -9.52748474 -4.36901684 0 0 Z " fill="#EEECE3" transform="translate(1395.9375,273.6875)"/>
<path d="M0 0 C1.40798001 -0.01149834 2.81591716 -0.03191659 4.22363281 -0.06152344 C19.90765484 -0.39064887 19.90765484 -0.39064887 26.87255859 4.29516602 C30.31439454 7.82094918 31.12495368 10.56629658 31.31005859 15.35766602 C31.12639155 19.43507437 30.64238261 22.1432973 27.87255859 25.29516602 C24.22018029 28.28347554 20.47491496 28.87848957 15.96240234 29.71313477 C2.62634335 31.44494181 2.62634335 31.44494181 -8.10400391 38.20532227 C-19.4815351 61.43806727 -18.33745148 92.69885435 -18.31494141 117.98266602 C-18.31500183 119.02263733 -18.31506226 120.06260864 -18.31512451 121.13409424 C-18.30177886 137.27023056 -17.85948337 153.23890451 -16.12744141 169.29516602 C-16.03140625 170.19960449 -15.93537109 171.10404297 -15.83642578 172.03588867 C-15.32135586 176.79678155 -14.75681708 181.5480665 -14.12744141 186.29516602 C-9.21972275 184.85082971 -5.08963958 182.76875577 -0.68994141 180.23266602 C0.22561523 179.71542969 0.22561523 179.71542969 1.15966797 179.18774414 C9.8313542 174.25102147 18.34474082 169.03312099 26.88354492 163.87109375 C30.25732113 161.83177787 33.63573334 159.80032078 37.0168457 157.77319336 C38.38609844 156.95023467 39.75359947 156.12435485 41.11938477 155.2956543 C48.71307316 150.69128748 56.14227948 146.45581794 64.45556641 143.24072266 C67.10741942 142.24860871 67.10741942 142.24860871 70.43505859 140.48266602 C78.14874717 137.81793723 85.34297831 138.79158961 92.70458984 142.08032227 C96.34852937 144.12224153 98.97774065 146.50553012 100.87255859 150.29516602 C101.47555821 156.44576212 100.0908218 159.27846161 96.87255859 164.29516602 C96.5718042 164.98497559 96.2710498 165.67478516 95.96118164 166.38549805 C94.65085221 168.68408446 93.74366341 169.15387755 91.32958984 170.16235352 C90.59796631 170.48276611 89.86634277 170.80317871 89.11254883 171.13330078 C88.31147705 171.47546631 87.51040527 171.81763184 86.68505859 172.17016602 C75.89296102 177.0375949 66.00493181 183.08152791 55.98486328 189.35668945 C52.73385288 191.38155787 49.4660236 193.37661988 46.19287109 195.36547852 C30.65709255 204.81668121 15.40860214 214.3549058 1.29736328 225.85693359 C-1.18352486 227.86532464 -3.06856868 229.27554177 -6.12744141 230.29516602 C-4.87936832 241.07593523 -1.50439028 251.04204672 1.87255859 261.29516602 C5.95019571 273.76937574 5.95019571 273.76937574 6.43505859 278.79516602 C6.6103473 282.20252396 6.6103473 282.20252396 8.17602539 284.36889648 C10.60925601 288.56586039 11.9496406 293.01716252 13.45458984 297.61547852 C13.79125168 298.62875214 14.12791351 299.64202576 14.47477722 300.68600464 C15.55050131 303.92889191 16.61773138 307.17450673 17.68505859 310.42016602 C18.39091751 312.54924516 19.09729288 314.67815316 19.80419922 316.80688477 C21.18892352 320.98171319 22.56042994 325.16054275 23.921875 329.34301758 C25.16637986 333.1647254 26.44415767 336.97195503 27.75683594 340.77075195 C28.32034511 342.44288665 28.88367024 344.11508338 29.44677734 345.78735352 C29.84132866 346.88975876 29.84132866 346.88975876 30.24385071 348.01443481 C31.97869412 353.25597293 32.24007708 357.90262262 30.87255859 363.29516602 C27.65477102 368.46312788 23.67556008 371.59065403 17.87255859 373.29516602 C9.98879119 374.34776711 3.71029013 373.30575855 -3.12744141 369.29516602 C-3.77712891 368.93293945 -4.42681641 368.57071289 -5.09619141 368.19750977 C-12.79456468 363.38602647 -14.83079497 354.7494592 -17.33447266 346.47875977 C-17.62078049 345.55301147 -17.90708832 344.62726318 -18.20207214 343.67346191 C-19.12137577 340.69520559 -20.03081794 337.71404388 -20.93994141 334.73266602 C-21.57152496 332.67918415 -22.20368809 330.62588045 -22.83642578 328.57275391 C-24.34924064 323.65812653 -25.85431064 318.74117852 -27.35552979 313.82299805 C-28.02330718 311.63618153 -28.69261081 309.4498466 -29.36328125 307.26391602 C-31.87920107 299.06352622 -34.37282558 290.85727785 -36.80322266 282.63110352 C-37.21604492 281.23903687 -37.21604492 281.23903687 -37.63720703 279.81884766 C-38.15374378 278.07427934 -38.66702987 276.32874353 -39.17626953 274.58203125 C-39.40378906 273.81318604 -39.63130859 273.04434082 -39.86572266 272.25219727 C-40.06206299 271.58164307 -40.25840332 270.91108887 -40.46069336 270.22021484 C-41.19798534 268.09149009 -41.93253663 266.21074036 -43.12744141 264.29516602 C-46.27058011 263.73690048 -46.27058011 263.73690048 -49.87744141 263.79516602 C-56.42200723 263.49434328 -59.91124611 262.674436 -64.51416016 257.83813477 C-69.87718302 251.76823783 -70.97569623 246.84021372 -70.90869141 238.79125977 C-69.92753854 234.4006007 -68.5480432 233.21190078 -64.93994141 230.60766602 C-62.16747133 228.93379185 -59.44159608 227.43450367 -56.48144531 226.12158203 C-53.81602304 224.46611295 -53.81602304 224.46611295 -53.52807617 221.25854492 C-53.54153076 220.02539551 -53.55498535 218.79224609 -53.56884766 217.52172852 C-53.57031799 216.85074127 -53.57178833 216.17975403 -53.57330322 215.48843384 C-53.58609392 213.29785416 -53.63658119 211.11010496 -53.68994141 208.92016602 C-53.71072965 207.40162486 -53.73049954 205.88306942 -53.74926758 204.36450195 C-53.89952061 194.83711978 -54.36057921 185.3746988 -55.46508789 175.90625 C-55.56955231 175.00781372 -55.67401672 174.10937744 -55.78164673 173.18371582 C-56.01329782 171.24864926 -56.25244763 169.3144665 -56.49887085 167.38122559 C-59.05104627 147.27809687 -59.60121128 127.44246667 -59.51855469 107.19824219 C-59.50131404 102.92851424 -59.51145528 98.65934642 -59.52927208 94.38963795 C-59.54023021 91.02363528 -59.53661177 87.65776078 -59.5288887 84.29175377 C-59.52692761 82.71850195 -59.52919656 81.14523739 -59.53632736 79.5720005 C-59.61762969 56.65954274 -55.97754375 31.42873222 -39.84228516 13.88110352 C-27.97110558 2.90229052 -15.68474871 0.08901467 0 0 Z " fill="#EEECE3" transform="translate(1222.12744140625,128.704833984375)"/>
<path d="M0 0 C7.4903858 3.86776285 12.06209945 10.01910001 14.5960083 17.89506531 C15.81147924 22.85260431 15.85330127 27.84218419 15.98046875 32.92578125 C16.02075195 34.14957993 16.06103516 35.3733786 16.10253906 36.63426208 C16.20812127 40.0057692 16.30010365 43.37704458 16.38372421 46.74913025 C16.43787017 48.88963358 16.49691995 51.02995161 16.55728149 53.17028809 C17.27477349 78.88152598 17.4340428 104.5923689 17.4375 130.3125 C17.43802242 131.18375645 17.43854485 132.05501289 17.4390831 132.95267105 C17.45004247 152.79927631 17.25630503 172.6233712 16.6764164 192.4618454 C16.24649732 207.22256294 16.09494117 221.96731264 16.11962891 236.734375 C16.12422874 240.0128005 16.12189206 243.29107475 16.11605644 246.56948853 C16.1115922 249.77549528 16.11470015 252.98149224 16.1171875 256.1875 C16.11516327 257.34975098 16.11313904 258.51200195 16.11105347 259.70947266 C16.11420563 260.7876123 16.11735779 261.86575195 16.12060547 262.9765625 C16.12140106 263.9145166 16.12219666 264.8524707 16.12301636 265.81884766 C16.26081514 268.79617564 16.70661682 271.63425159 17.25 274.5625 C26.18589101 274.25861286 33.72192905 270.85689096 41.8515625 267.48046875 C43.39414911 266.84991101 44.93726306 266.22064203 46.48086548 265.59257507 C49.73947565 264.26601232 52.99605936 262.9346332 56.25158691 261.6005249 C63.62520967 258.58599287 71.03162887 255.65399736 78.43602753 252.71609879 C82.53978972 251.08650393 86.64089863 249.45026045 90.7421875 247.81445312 C95.74446031 245.81954316 100.7472135 243.82587275 105.75195312 241.8371582 C109.91108228 240.18435975 114.06851813 238.52736855 118.22481155 236.86745262 C119.78307489 236.24598134 121.34193993 235.62601635 122.90143967 235.00765419 C125.05359177 234.15404722 127.20352906 233.29507807 129.35302734 232.43481445 C130.56872406 231.95075638 131.78442078 231.4666983 133.03695679 230.9679718 C135.9520132 229.69284747 138.54189116 228.21875425 141.25 226.5625 C143.32714844 226.17431641 143.32714844 226.17431641 145.359375 226.1640625 C146.11009277 226.15793945 146.86081055 226.15181641 147.63427734 226.14550781 C148.41496582 226.15936523 149.1956543 226.17322266 150 226.1875 C151.20390381 226.20055176 151.20390381 226.20055176 152.43212891 226.21386719 C159.40874333 226.38675912 164.77371674 227.52760248 170.8125 231.0625 C173.29033488 235.37177805 173.01227557 239.74144136 172.25 244.5625 C168.0548214 255.42170123 157.53307251 260.28858979 147.625 264.9375 C147.03107452 265.21941193 146.43714905 265.50132385 145.82522583 265.79177856 C130.89115496 272.8754436 115.58975183 278.66249533 99.84350586 283.66186523 C96.6243001 284.69453946 94.08409867 285.67310089 91.25 287.5625 C89.28142889 288.12204967 87.29973921 288.63586978 85.3125 289.125 C69.84719043 293.47808099 56.02488403 301.04950804 42.28857422 309.24072266 C32.48057188 315.08301161 22.42985316 320.40053444 12.25 325.5625 C11.55575928 325.92907715 10.86151855 326.2956543 10.14624023 326.67333984 C5.49415626 328.85473418 -0.46892117 328.21073285 -5.29296875 326.83984375 C-13.67809907 323.37061898 -18.2519232 317.36649384 -22.375 309.4375 C-26.55118441 298.96875532 -26.03369626 287.36830241 -25.98046875 276.296875 C-25.97927016 274.61623165 -25.97882521 272.93558761 -25.9790802 271.25494385 C-25.97752194 267.72818805 -25.96930537 264.20153465 -25.95581055 260.67480469 C-25.93918457 256.28753748 -25.93507255 251.90038495 -25.93563366 247.51309013 C-25.93503617 229.72696694 -25.75713484 211.95871464 -25.25 194.1796875 C-24.62981959 172.32147707 -24.56251379 150.46753352 -24.56469727 128.6015625 C-24.56480011 123.00205671 -24.55096203 117.40267422 -24.53392506 111.80319786 C-24.5227076 107.38967341 -24.52078075 102.97617838 -24.52130699 98.56264114 C-24.5201487 96.4986693 -24.51585268 94.43469612 -24.50797462 92.37073898 C-24.46498069 79.98856519 -24.98655808 67.81953799 -26.25956726 55.49990845 C-27.08211866 47.53760105 -27.48560883 39.56071958 -27.75 31.5625 C-27.78399902 30.61681152 -27.81799805 29.67112305 -27.85302734 28.69677734 C-27.94872805 25.71451014 -28.01063754 22.73332599 -28.0625 19.75 C-28.09230957 18.82445312 -28.12211914 17.89890625 -28.15283203 16.9453125 C-28.21329541 9.95729015 -26.36358527 6.49288348 -21.6875 1.25 C-16.25180323 -3.48431654 -6.35755247 -2.43669258 0 0 Z " fill="#EEECE4" transform="translate(896.75,169.4375)"/>
<path d="M0 0 C2.24443434 0.00373745 4.48887032 0.00658096 6.73330688 0.00857544 C12.59562815 0.01615426 18.45784783 0.03575237 24.32012939 0.0579834 C30.32017646 0.07856675 36.32024019 0.08760368 42.3203125 0.09765625 C54.05994008 0.11900449 65.79949279 0.1530697 77.5390625 0.1953125 C77.73917438 6.18673909 77.88307721 12.17615651 77.97851562 18.17016602 C78.01836036 20.20208684 78.07265932 22.23378422 78.14257812 24.26489258 C78.60495555 38.05801917 77.54564531 47.7608581 69.5390625 59.1953125 C68.9318335 60.07775635 68.32460449 60.9602002 67.69897461 61.86938477 C66.09271924 64.10720738 64.37718317 66.14407639 62.5390625 68.1953125 C61.46591797 69.40767578 61.46591797 69.40767578 60.37109375 70.64453125 C44.89823629 87.12703683 25.13078634 93.66176937 3.5390625 98.1953125 C2.71857422 98.37707031 1.89808594 98.55882812 1.05273438 98.74609375 C-20.24292069 102.55184407 -46.34360327 98.18472486 -64.4609375 86.1953125 C-72.86970129 80.2763777 -79.43412369 71.35885289 -82.02734375 61.32421875 C-84.06249982 46.63809251 -83.59302585 32.66881137 -74.4609375 20.51171875 C-64.95098115 9.49725759 -51.39640997 4.78998969 -37.4609375 2.1953125 C-36.51100922 2.01292023 -35.56108093 1.83052795 -34.58236694 1.64260864 C-23.08343005 -0.28263873 -11.62538121 -0.0573035 0 0 Z " fill="#130F28" transform="translate(1076.4609375,645.8046875)"/>
<path d="M0 0 C5.50844092 2.55719099 10.12503549 5.75355857 13.12890625 11.12890625 C17.43858996 23.33603066 16.24590574 38.03796635 16.05212021 50.83622169 C15.98757957 55.29143169 15.9506921 59.74690015 15.91137695 64.20239258 C15.89867641 65.60702712 15.89867641 65.60702712 15.8857193 67.04003811 C15.61269118 98.47106508 15.92080296 129.63717777 18.94140625 160.94140625 C19.00711697 161.62521614 19.07282768 162.30902603 19.14052963 163.01355743 C20.28432521 174.83533753 21.6158567 186.63497821 22.96240234 198.43505859 C24.93145731 215.74024513 26.32543062 232.85162279 26.36914062 250.27734375 C26.37901579 252.65528229 26.41027376 255.03241245 26.44140625 257.41015625 C26.44792482 258.95181793 26.45317977 260.4934856 26.45703125 262.03515625 C26.46937805 262.73112915 26.48172485 263.42710205 26.4944458 264.14416504 C26.47178661 269.1915369 25.5524297 273.69723885 23.12890625 278.12890625 C16.6574971 283.49879895 10.2698615 283.75695665 2.12890625 283.12890625 C-3.3875252 281.35948484 -6.79206555 277.91758354 -9.87109375 273.12890625 C-17.57418906 257.99858406 -17.12414689 241.24355457 -17.53027344 224.68774414 C-17.5615332 223.44114014 -17.59279297 222.19453613 -17.625 220.91015625 C-17.64892822 219.79705078 -17.67285645 218.68394531 -17.69750977 217.53710938 C-17.83007927 214.06628572 -17.83007927 214.06628572 -18.35388184 210.39494324 C-18.86196782 206.42141177 -19.12547075 202.46666251 -19.32006836 198.46411133 C-19.35601608 197.7420903 -19.39196381 197.02006927 -19.42900085 196.27616882 C-19.54661352 193.90038666 -19.66000431 191.52442256 -19.7734375 189.1484375 C-19.85660918 187.45487572 -19.94007596 185.76132842 -20.02381897 184.0677948 C-20.24428541 179.59575591 -20.46130928 175.12355695 -20.6774292 170.65130615 C-21.01733466 163.628755 -21.3625163 156.60646159 -21.70756721 149.58416176 C-21.83684043 146.94248626 -21.96457795 144.30073957 -22.09214783 141.65898132 C-22.49513151 133.36659167 -22.92164109 125.0771709 -23.42602539 116.7902832 C-24.7453454 94.92710638 -25.33663957 73.1091029 -25.40649414 51.20581055 C-25.42346271 46.52664878 -25.48275165 41.84888904 -25.54963779 37.17021275 C-25.59427473 33.50962298 -25.60797278 29.84938956 -25.6131115 26.18855095 C-25.62095956 24.46015021 -25.64046461 22.73175821 -25.67233467 21.0036335 C-25.90252945 7.71891614 -25.90252945 7.71891614 -23.33200073 3.75631714 C-21.5635903 2.20205453 -19.99529631 1.1247257 -17.87109375 0.12890625 C-12.74781865 -2.4327313 -5.32590849 -1.61588788 0 0 Z " fill="#EEECE3" transform="translate(1110.87109375,215.87109375)"/>
<path d="M0 0 C2.90903129 2.11225618 5.45042171 4.47085921 8 7 C8.71542969 7.68964844 9.43085937 8.37929687 10.16796875 9.08984375 C18.72247614 17.45736737 18.72247614 17.45736737 19.43359375 21.41015625 C19.45041828 32.83401121 15.49891737 43.2653706 7.4921875 51.5625 C0.69845045 57.53814306 -5.41354292 58.67145055 -14.23828125 58.47265625 C-23.27312216 57.3374374 -30.4786473 50.98144375 -36 44 C-40.21716119 36.93992666 -43.04531003 30.36248028 -42 22 C-39.21397506 11.88876802 -33.29398482 2.71954384 -24.0625 -2.625 C-15.84257303 -6.04318745 -7.54979855 -4.20950939 0 0 Z " fill="#EDECE3" transform="translate(1121,130)"/>
<path d="M0 0 C0.99 0.495 0.99 0.495 2 1 C0.60587891 2.37671875 0.60587891 2.37671875 -0.81640625 3.78125 C-9.21279956 12.0662381 -9.21279956 12.0662381 -17.10546875 20.82421875 C-19.78081987 23.8967354 -22.5859776 26.84334911 -25.375 29.8125 C-30.10092565 34.86011365 -34.57501751 40.03324914 -38.8984375 45.43359375 C-40.98001427 47.97559363 -43.1503838 50.39529335 -45.375 52.8125 C-50.37732043 58.31591643 -54.9214609 64.14174782 -59.46386719 70.02246094 C-61.07011337 72.09026037 -62.69347868 74.14367863 -64.3203125 76.1953125 C-72.99051861 87.16582732 -81.15607587 98.42482706 -89 110 C-89.82564453 111.21792236 -89.82564453 111.21792236 -90.66796875 112.46044922 C-107.34457715 137.22283597 -122.39889791 163.63310746 -132 192 C-132.37640625 193.09054687 -132.7528125 194.18109375 -133.140625 195.3046875 C-137.16861014 207.59906007 -139.19379831 220.10077293 -140 233 C-144.29 233 -148.58 233 -153 233 C-149.80735119 187.91759693 -125.16639411 146.70474234 -99 111 C-98.22011719 109.93523437 -97.44023437 108.87046875 -96.63671875 107.7734375 C-87.95216115 96.08090702 -78.90228324 84.70800022 -69.41796875 73.65625 C-67.95988526 71.95314422 -66.51053148 70.24290726 -65.0625 68.53125 C-58.80683439 61.1556547 -52.38258088 53.97564857 -45.7722168 46.91601562 C-44.43168959 45.46671717 -43.10475866 44.00482703 -41.78442383 42.53710938 C-33.43674615 33.29647572 -24.64152705 24.52844458 -15.8125 15.75 C-14.27255107 14.21507987 -12.73283592 12.67992517 -11.19335938 11.14453125 C-7.46492489 7.42698432 -3.73363601 3.71232249 0 0 Z " fill="#4F8D41" transform="translate(2169,166)"/>
<path d="M0 0 C3.60372349 0.91731143 5.3848769 1.95815718 7.53515625 5.03515625 C9.24522037 8.52191037 9.66493149 11.15707182 8.4375 14.875 C6.74365234 16.56567383 6.74365234 16.56567383 4.5234375 18.20703125 C3.7082666 18.81039307 2.8930957 19.41375488 2.05322266 20.03540039 C-2.16932006 23.00505312 -6.46493485 25.8422964 -10.8125 28.625 C-11.68390625 29.18832031 -12.5553125 29.75164062 -13.453125 30.33203125 C-17.45249405 32.91089269 -21.45743828 35.46624477 -25.5625 37.875 C-24.30447163 33.7313975 -22.76972483 30.23219371 -20.515625 26.5390625 C-19.9175 25.55679687 -19.319375 24.57453125 -18.703125 23.5625 C-18.07921875 22.551875 -17.4553125 21.54125 -16.8125 20.5 C-16.2040625 19.49710937 -15.595625 18.49421875 -14.96875 17.4609375 C-5.0294939 1.23531429 -5.0294939 1.23531429 0 0 Z " fill="#17142D" transform="translate(1389.5625,304.125)"/>
<path d="M0 0 C0.66 0.33 1.32 0.66 2 1 C0.60587891 2.37671875 0.60587891 2.37671875 -0.81640625 3.78125 C-7.10523237 10.01480655 -13.25361637 16.25879825 -19 23 C-20.71996212 24.9675936 -22.44742284 26.92546911 -24.1875 28.875 C-25.00605469 29.80054688 -25.82460937 30.72609375 -26.66796875 31.6796875 C-28.81629672 33.81721985 -30.31992594 34.74388448 -33 36 C-34.9499629 37.70995544 -34.9499629 37.70995544 -36.75 39.625 C-37.36359375 40.25664062 -37.9771875 40.88828125 -38.609375 41.5390625 C-39.06828125 42.02117187 -39.5271875 42.50328125 -40 43 C-40 40 -40 40 -38.48144531 38.12068176 C-37.77084961 37.41674789 -37.06025391 36.71281403 -36.328125 35.98754883 C-35.52729492 35.18694534 -34.72646484 34.38634186 -33.90136719 33.56147766 C-33.02641602 32.70201035 -32.15146484 31.84254303 -31.25 30.95703125 C-30.3621582 30.0734343 -29.47431641 29.18983734 -28.55957031 28.27946472 C-26.19749372 25.93135977 -23.82914118 23.58996475 -21.45751953 21.25152588 C-19.03919125 18.86388241 -16.62933037 16.46772672 -14.21875 14.07226562 C-9.48695353 9.37360317 -4.74670259 4.68360083 0 0 Z " fill="#56944A" transform="translate(2169,166)"/>
</svg>
