<svg width="42" height="24" viewBox="0 0 42 24" fill="none" xmlns="http://www.w3.org/2000/svg">
<mask id="mask0_593_5228" style="mask-type:luminance" maskUnits="userSpaceOnUse" x="0" y="0" width="42" height="24">
<path d="M41.1322 0H0V24H41.1322V0Z" fill="white"/>
</mask>
<g mask="url(#mask0_593_5228)">
<path d="M41.1322 0H0V24H41.1322V0Z" fill="white"/>
</g>
<mask id="mask1_593_5228" style="mask-type:luminance" maskUnits="userSpaceOnUse" x="0" y="0" width="42" height="24">
<path d="M41.1322 0H0V24H41.1322V0Z" fill="white"/>
</mask>
<g mask="url(#mask1_593_5228)">
<path d="M41.1322 17.9751H0V23.9751H41.1322V17.9751Z" fill="#E53633"/>
</g>
<mask id="mask2_593_5228" style="mask-type:luminance" maskUnits="userSpaceOnUse" x="0" y="0" width="42" height="24">
<path d="M41.1322 0H0V24H41.1322V0Z" fill="white"/>
</mask>
<g mask="url(#mask2_593_5228)">
<path d="M41.1322 0H0V6H41.1322V0Z" fill="#E53633"/>
</g>
<mask id="mask3_593_5228" style="mask-type:luminance" maskUnits="userSpaceOnUse" x="0" y="0" width="42" height="24">
<path d="M41.1322 0H0V24H41.1322V0Z" fill="white"/>
</mask>
<g mask="url(#mask3_593_5228)">
<mask id="mask4_593_5228" style="mask-type:luminance" maskUnits="userSpaceOnUse" x="0" y="0" width="42" height="24">
<path d="M41.1322 0H0V24H41.1322V0Z" fill="white"/>
</mask>
<g mask="url(#mask4_593_5228)">
<path d="M20.4046 5.9751L20.2062 6.29742C20.107 6.47097 19.8343 6.7437 19.636 6.89246C19.4128 7.04122 19.1649 7.26436 19.0657 7.38832L18.8922 7.61146L19.0905 7.56187C19.1897 7.53708 19.3385 7.48749 19.4128 7.4627C19.4872 7.43791 19.5368 7.4627 19.5368 7.4875C19.512 7.61146 19.1649 7.8594 18.8922 7.98336C18.6442 8.08254 18.2475 8.35526 18.198 8.47923C18.2227 8.50402 18.3219 8.50402 18.3963 8.47923C18.5699 8.45444 18.6194 8.45444 18.6938 8.5784C18.7682 8.75196 18.7186 8.82634 18.5451 8.82634C18.3219 8.82634 17.9748 9.07428 17.9252 9.27262C17.9004 9.39659 17.7765 9.52056 17.4789 9.64452C17.0327 9.84287 16.4376 10.2396 16.4128 10.3635C16.4128 10.5371 16.7847 10.5123 17.3302 10.3387C17.4542 10.2891 17.5037 10.3387 17.6029 10.5619C17.7269 10.8346 17.7269 10.8346 17.4542 11.1817C17.2558 11.4296 17.1071 11.5536 16.9335 11.5784C16.5864 11.6528 16.4624 11.7272 16.0161 12.1734C15.793 12.3966 15.5699 12.5701 15.5203 12.5701C15.4955 12.5701 15.4955 12.5701 15.4707 12.5701C15.4955 12.6445 15.7434 12.7685 15.8922 12.7685C15.9913 12.7685 16.2393 12.6445 16.4376 12.5205C16.7847 12.2726 16.8095 12.2726 16.9335 12.4214C17.0079 12.4958 17.0823 12.6445 17.0823 12.7685C17.0823 12.942 16.9831 13.0164 16.5368 13.2396C16.1897 13.4131 15.793 13.7106 15.4955 14.0082C15.074 14.4296 14.95 14.504 14.7765 14.4792C14.6525 14.4544 14.6029 14.4544 14.5781 14.4544C14.5781 14.4792 14.6277 14.5288 14.6773 14.6032C14.7517 14.6776 14.9004 14.7272 14.9996 14.7272C15.3219 14.7272 16.3137 14.3553 16.636 14.1073C16.9335 13.8842 17.2062 13.8594 17.4294 13.9834C17.7765 14.2065 17.1814 14.628 16.0657 14.9503C15.6442 15.0743 15.2971 15.1982 15.2475 15.223C15.2227 15.2478 15.2475 15.3222 15.2971 15.3966C15.4211 15.5453 16.0161 15.5701 16.512 15.4214C16.7104 15.3718 17.231 15.1487 17.6277 14.9751C18.3715 14.628 18.3715 14.628 18.6442 14.7767C19.2641 15.0991 19.1897 15.6445 18.4707 16.5867C18.1484 16.9834 17.8756 17.1569 17.355 17.2809C17.1566 17.3305 16.7599 17.7024 16.7599 17.8263C16.7599 17.8511 16.7599 17.8511 16.7599 17.8511H16.8839C16.9087 17.8263 16.9335 17.8015 16.9831 17.752C17.1566 17.5288 17.479 17.3801 17.8013 17.3801C18.1732 17.3801 18.5946 17.1817 18.9418 16.8594C19.2393 16.5867 19.5368 16.5123 19.7351 16.6363C19.8591 16.7106 19.9583 16.7106 20.107 16.661C20.3798 16.5619 20.5037 16.6115 20.5037 16.8098C20.5037 16.909 20.6029 17.0082 20.7269 17.0825C20.8508 17.1569 21.074 17.3305 21.198 17.4544C21.2971 17.5536 21.3963 17.6032 21.4211 17.6032C21.4211 17.5536 21.3963 17.4544 21.2971 17.3305C21.2475 17.2561 21.2227 17.1817 21.2227 17.1321C21.2723 17.1073 21.5203 17.1321 21.7682 17.1569C22.2393 17.2065 22.2889 17.2313 22.5616 17.5536C22.6856 17.7024 22.8095 17.8015 22.9087 17.8511H23.107C23.1566 17.8263 23.1814 17.8015 23.1814 17.7767C23.1566 17.7272 22.8839 17.4544 22.5616 17.1817C21.793 16.5619 21.6938 16.3139 21.6938 15.4462C21.6938 14.9255 21.7186 14.7767 21.8426 14.6528C22.0409 14.4544 22.1401 14.4544 22.6112 14.7024C22.9583 14.8759 23.0823 14.9007 23.8756 14.8759C24.7434 14.8511 24.7682 14.8511 25.1897 15.1239C25.4376 15.2726 25.7351 15.471 25.8591 15.5453C26.1318 15.7437 26.4046 15.7685 26.4542 15.5701C26.5285 15.347 26.0079 14.9255 25.0657 14.4048C24.1236 13.8842 23.9996 13.7602 24.4459 13.5123C24.6938 13.3883 24.7186 13.3883 25.1153 13.6115C25.4376 13.785 25.5864 13.8346 25.7847 13.785L26.0575 13.7354L25.4872 13.2644C25.1649 13.0164 24.8674 12.7437 24.8178 12.6445C24.6442 12.4214 24.3219 12.2726 23.9996 12.2726C23.8509 12.2726 23.7021 12.2478 23.6773 12.1982C23.5781 12.0495 23.8509 11.9503 24.6194 11.9255C25.636 11.8759 25.7599 11.7767 25.0657 11.5288C24.793 11.4296 24.3715 11.3305 24.1484 11.2809C23.8756 11.2313 23.7021 11.1569 23.6773 11.0825V11.0577V11.0329C23.6773 11.0082 23.7021 10.9834 23.7269 10.9586C23.7765 10.909 23.9996 10.909 24.3963 10.9834C24.8178 11.0577 25.0657 11.0825 25.1153 11.0329C25.1649 10.9834 24.9665 10.8346 24.5203 10.5867C24.1236 10.3635 23.6029 9.99163 23.3798 9.76849C23.1566 9.54535 22.8095 9.29741 22.636 9.19824C22.388 9.07427 22.3137 8.99989 22.3385 8.92551C22.388 8.77675 22.7847 8.77675 23.0327 8.92551C23.1318 8.99989 23.4046 9.04948 23.6277 9.04948H24.0244L23.7517 8.9503C23.4789 8.85113 22.7599 8.33047 22.6856 8.2065C22.7104 8.18171 22.8839 8.18171 23.0823 8.18171L23.4789 8.2065L22.8839 7.76022C22.4624 7.43791 22.1897 7.28915 21.8922 7.21477C21.669 7.16518 21.3963 7.11559 21.3219 7.0908C21.074 7.04121 20.6773 6.61973 20.5037 6.24783L20.4046 5.9751ZM19.0657 8.25609H19.0905C19.1649 8.25609 19.2145 8.28088 19.2393 8.30567C19.2393 8.30567 19.2393 8.30568 19.2393 8.33047C19.2145 8.38006 19.1401 8.47923 19.0409 8.55361C18.9666 8.60319 18.9418 8.62799 18.917 8.62799C18.8922 8.6032 18.8922 8.55361 18.8922 8.47923C18.8922 8.30568 18.9418 8.25609 19.0657 8.25609ZM21.0492 8.45444C21.1732 8.45444 21.2475 8.50402 21.2723 8.6032C21.2971 8.72716 21.2475 8.75196 21.074 8.75196C20.9748 8.75196 20.9252 8.75196 20.8756 8.70237C20.8508 8.67758 20.8508 8.65278 20.8508 8.6032C20.8508 8.52882 20.9252 8.47923 21.0492 8.45444ZM20.4542 8.50403C20.5533 8.50403 20.6029 8.55361 20.6029 8.67757C20.6029 8.82634 20.5533 8.87592 20.2806 8.9503C20.107 8.99989 19.9583 9.02469 19.9087 8.99989C19.8095 8.90072 19.9087 8.75196 20.1318 8.62799C20.2806 8.55361 20.3798 8.52882 20.4542 8.50403ZM21.793 8.50403C21.9418 8.50403 21.9666 8.57841 21.8922 8.77675C21.8674 8.85113 21.7682 8.90072 21.669 8.90072C21.5203 8.90072 21.4955 8.87593 21.5203 8.72716C21.5451 8.6032 21.5947 8.52882 21.7434 8.52882C21.7434 8.52882 21.7682 8.50403 21.793 8.50403ZM19.5368 8.90072C19.5616 8.90072 19.5616 8.90072 19.5368 8.90072C19.7351 8.90072 19.6112 9.24783 19.388 9.39659C19.1897 9.52056 18.9666 9.59493 18.917 9.54534C18.917 9.3222 19.3385 8.92551 19.5368 8.90072ZM21.2227 9.69411C21.2971 9.69411 21.3715 9.76849 21.3219 9.94204C21.2971 10.0412 21.2227 10.0908 21.0988 10.1156C20.9996 10.1156 20.95 10.1156 20.9252 10.0908C20.9252 10.0412 20.95 9.96683 21.074 9.81807C21.0988 9.74369 21.1732 9.69411 21.2227 9.69411ZM20.5533 9.7189C20.7269 9.7189 20.7517 9.86766 20.6029 9.96683C20.5285 10.0164 20.4542 10.0412 20.4294 10.0412C20.4046 10.0412 20.3302 10.0164 20.231 9.96683L20.0575 9.89246L20.2558 9.79328C20.355 9.76848 20.4789 9.7189 20.5533 9.7189ZM21.9913 9.91724C22.0657 9.91724 22.1649 9.91725 22.2393 9.96683C22.388 10.0412 22.4128 10.0908 22.388 10.2644C22.3385 10.4875 22.2145 10.5123 21.793 10.3883C21.5946 10.3139 21.5699 10.2892 21.6194 10.1404C21.6938 9.99163 21.8178 9.91724 21.9913 9.91724ZM18.8178 9.96683C19.1401 9.96683 19.1897 10.0164 19.0409 10.2148C18.9913 10.2891 18.8922 10.3883 18.8178 10.4379C18.7186 10.5123 18.6938 10.5123 18.6194 10.3883C18.5451 10.2148 18.5203 10.1156 18.5451 10.066C18.5947 9.99163 18.669 9.96683 18.8178 9.96683ZM17.9996 10.1156C18.1236 10.1156 18.2227 10.1652 18.3219 10.3635L18.4707 10.6115L18.2475 10.6858C18.0492 10.7602 17.9996 10.7602 17.8508 10.5123C17.7517 10.3635 17.7021 10.2644 17.7269 10.19C17.7269 10.19 17.7269 10.19 17.7269 10.1652C17.7765 10.1156 17.8508 10.1156 17.95 10.0908C17.9748 10.1156 17.9996 10.1156 17.9996 10.1156ZM22.8839 10.8842C23.0327 10.8842 23.1814 10.9834 23.1566 11.1321C23.1318 11.3553 22.9087 11.4049 22.7104 11.2561C22.5864 11.1569 22.5864 11.1321 22.6856 11.0082C22.7351 10.909 22.8095 10.8842 22.8839 10.8842ZM20.107 11.2809C20.1318 11.2809 20.1318 11.2809 20.107 11.2809C20.1318 11.2809 20.1566 11.2809 20.1566 11.2809C20.1566 11.2809 20.1566 11.2809 20.1814 11.2809C20.2062 11.3057 20.2062 11.3553 20.2062 11.4296C20.1814 11.6528 20.0327 11.7024 19.9831 11.5288C19.9335 11.3801 19.9831 11.2809 20.107 11.2809ZM19.1897 11.4296C19.2641 11.4296 19.3632 11.4544 19.4624 11.5536C19.5368 11.6032 19.5616 11.6776 19.5616 11.7024C19.512 11.7272 19.4376 11.7272 19.3137 11.6528C19.2393 11.5784 19.1649 11.504 19.1401 11.4544C19.1153 11.4792 19.1401 11.4544 19.1897 11.4296ZM20.6525 11.4792C20.6773 11.4792 20.7021 11.504 20.7517 11.5536C20.8261 11.628 20.9004 11.752 20.9252 11.8511C20.9996 12.0743 20.8756 12.1734 20.6773 12.0743C20.4542 11.9751 20.4046 11.8015 20.5285 11.6032C20.6029 11.504 20.6277 11.4792 20.6525 11.4792ZM21.1732 11.7767C21.2227 11.7767 21.2971 11.8511 21.3219 11.9999C21.3219 12.0743 21.3219 12.1487 21.2971 12.1734C21.198 12.1734 21.1236 12.0743 21.1236 11.9007C21.1236 11.8263 21.1484 11.7767 21.1732 11.7767ZM17.95 12.0991C18.0492 12.0991 18.1484 12.0991 18.2227 12.1239C18.3219 12.1487 18.3963 12.1734 18.4211 12.1982L18.4459 12.223C18.4459 12.223 18.4459 12.223 18.4459 12.2478V12.2726C18.4459 12.347 18.3467 12.4214 18.1732 12.4958C18.0244 12.5701 17.8013 12.6445 17.6525 12.6941C17.4046 12.7437 17.3798 12.7189 17.2558 12.4958C17.1814 12.3718 17.1318 12.2478 17.1318 12.223C17.1814 12.1487 17.6277 12.0991 17.95 12.0991ZM22.9583 12.8429C23.2558 12.8181 23.4046 13.0164 23.0823 13.2644C22.8839 13.4131 22.5864 13.4379 22.388 13.2891C22.2641 13.19 22.2641 13.1652 22.512 12.9916C22.6856 12.8925 22.8343 12.8429 22.9583 12.8429ZM24.0244 13.066C24.074 13.066 24.1732 13.1156 24.2723 13.19C24.4211 13.3139 24.4211 13.3139 24.2475 13.5123C24.1484 13.6115 24.074 13.7106 24.0244 13.7106C23.9996 13.7106 23.8756 13.6858 23.7517 13.661C23.6029 13.6363 23.5037 13.5867 23.5037 13.5123C23.5037 13.3635 23.8756 13.0908 24.0244 13.066ZM18.6938 13.3883C18.7186 13.3883 18.7186 13.3883 18.7434 13.3883C18.9418 13.3883 19.0657 13.5619 19.0657 13.8594C19.0657 14.2561 18.8178 14.2313 18.7186 13.8098C18.5946 13.4379 18.5946 13.3883 18.6938 13.3883ZM20.2062 13.4875C20.3302 13.4875 20.6277 13.5619 20.6525 13.5867C20.6525 13.6115 20.5781 13.7354 20.4789 13.8594L20.3054 14.0825L20.2062 13.785C20.1566 13.6363 20.1318 13.5123 20.1318 13.4627C20.1814 13.5123 20.2062 13.4875 20.2062 13.4875ZM19.4872 13.6363C19.512 13.6363 19.5368 13.6363 19.5864 13.6363C19.6856 13.661 19.7599 13.7354 19.7847 13.8098C19.8095 13.909 19.7847 13.9834 19.7599 14.0082C19.7599 14.0082 19.7599 14.0082 19.7351 14.0082C19.7351 14.0082 19.7351 14.0082 19.7104 14.0082C19.6608 14.0082 19.5864 13.9338 19.5368 13.8346C19.4624 13.6858 19.4376 13.6363 19.4624 13.6115C19.4624 13.6363 19.4624 13.6363 19.4872 13.6363C19.4624 13.6363 19.4624 13.6363 19.4872 13.6363Z" fill="#419F43"/>
</g>
</g>
</svg>
