<svg width="28" height="28" viewBox="0 0 28 28" fill="none" xmlns="http://www.w3.org/2000/svg">
<path d="M14 24.3834L19.775 18.6084C20.917 17.4662 21.6948 16.0111 22.0098 14.4269C22.3249 12.8428 22.1631 11.2008 21.5449 9.70855C20.9268 8.21634 19.8801 6.94093 18.5371 6.0436C17.1941 5.14627 15.6152 4.66733 14 4.66733C12.3848 4.66733 10.8059 5.14627 9.46293 6.0436C8.11995 6.94093 7.07321 8.21634 6.45507 9.70855C5.83693 11.2008 5.67515 12.8428 5.9902 14.4269C6.30524 16.0111 7.08296 17.4662 8.225 18.6084L14 24.3834ZM14 27.6827L6.57534 20.2581C5.1069 18.7896 4.10688 16.9187 3.70175 14.8819C3.29662 12.8451 3.50456 10.7339 4.29928 8.81529C5.09401 6.89667 6.43982 5.25681 8.16653 4.10306C9.89324 2.94931 11.9233 2.3335 14 2.3335C16.0767 2.3335 18.1068 2.94931 19.8335 4.10306C21.5602 5.25681 22.906 6.89667 23.7007 8.81529C24.4955 10.7339 24.7034 12.8451 24.2983 14.8819C23.8931 16.9187 22.8931 18.7896 21.4247 20.2581L14 27.6827ZM14 15.1667C14.6188 15.1667 15.2123 14.9209 15.6499 14.4833C16.0875 14.0457 16.3333 13.4522 16.3333 12.8334C16.3333 12.2146 16.0875 11.6211 15.6499 11.1835C15.2123 10.7459 14.6188 10.5001 14 10.5001C13.3812 10.5001 12.7877 10.7459 12.3501 11.1835C11.9125 11.6211 11.6667 12.2146 11.6667 12.8334C11.6667 13.4522 11.9125 14.0457 12.3501 14.4833C12.7877 14.9209 13.3812 15.1667 14 15.1667ZM14 17.5001C12.7623 17.5001 11.5753 17.0084 10.7002 16.1332C9.825 15.2581 9.33334 14.0711 9.33334 12.8334C9.33334 11.5957 9.825 10.4087 10.7002 9.53357C11.5753 8.6584 12.7623 8.16674 14 8.16674C15.2377 8.16674 16.4247 8.6584 17.2998 9.53357C18.175 10.4087 18.6667 11.5957 18.6667 12.8334C18.6667 14.0711 18.175 15.2581 17.2998 16.1332C16.4247 17.0084 15.2377 17.5001 14 17.5001Z" fill="#0B0B0B"/>
</svg>
