<svg width="52" height="52" viewBox="0 0 52 52" fill="none" xmlns="http://www.w3.org/2000/svg">
<rect x="0.5" y="0.5" width="51" height="51" rx="25.5" fill="#EDF4EC"/>
<rect x="0.5" y="0.5" width="51" height="51" rx="25.5" stroke="#B3B3B3"/>
<path d="M32.6667 34.0001C33.374 34.0001 34.0522 34.281 34.5523 34.7811C35.0524 35.2812 35.3334 35.9595 35.3334 36.6667C35.3334 37.374 35.0524 38.0523 34.5523 38.5524C34.0522 39.0525 33.374 39.3334 32.6667 39.3334C31.9595 39.3334 31.2812 39.0525 30.7811 38.5524C30.281 38.0523 30 37.374 30 36.6667C30 35.1867 31.1867 34.0001 32.6667 34.0001ZM11.3334 12.6667H15.6934L16.9467 15.3334H36.6667C37.0203 15.3334 37.3595 15.4739 37.6095 15.7239C37.8596 15.974 38 16.3131 38 16.6667C38 16.8934 37.9334 17.1201 37.84 17.3334L33.0667 25.9601C32.6134 26.7734 31.7334 27.3334 30.7334 27.3334H20.8L19.6 29.5067L19.56 29.6667C19.56 29.7552 19.5952 29.8399 19.6577 29.9025C19.7202 29.965 19.805 30.0001 19.8934 30.0001H35.3334V32.6667H19.3334C18.6261 32.6667 17.9479 32.3858 17.4478 31.8857C16.9477 31.3856 16.6667 30.7073 16.6667 30.0001C16.6667 29.5334 16.7867 29.0934 16.9867 28.7201L18.8 25.4534L14 15.3334H11.3334V12.6667ZM19.3334 34.0001C20.0406 34.0001 20.7189 34.281 21.219 34.7811C21.7191 35.2812 22 35.9595 22 36.6667C22 37.374 21.7191 38.0523 21.219 38.5524C20.7189 39.0525 20.0406 39.3334 19.3334 39.3334C18.6261 39.3334 17.9479 39.0525 17.4478 38.5524C16.9477 38.0523 16.6667 37.374 16.6667 36.6667C16.6667 35.1867 17.8534 34.0001 19.3334 34.0001ZM31.3334 24.6667L35.04 18.0001H18.1867L21.3334 24.6667H31.3334Z" fill="#4e8d40"/>
</svg>
