<svg width="28" height="20" viewBox="0 0 28 20" fill="none" xmlns="http://www.w3.org/2000/svg">
<g id="Group">
<g id="Union">
<path d="M4.6665 6.00008C4.6665 5.2637 5.26346 4.66675 5.99984 4.66675H8.6665C9.40288 4.66675 9.99984 5.2637 9.99984 6.00008C9.99984 6.73646 9.40288 7.33342 8.6665 7.33342H5.99984C5.26346 7.33342 4.6665 6.73646 4.6665 6.00008Z" fill="#4e8d40"/>
<path d="M17.9998 14.0001C17.9998 13.2637 18.5968 12.6667 19.3332 12.6667H21.9998C22.7362 12.6667 23.3332 13.2637 23.3332 14.0001C23.3332 14.7365 22.7362 15.3334 21.9998 15.3334H19.3332C18.5968 15.3334 17.9998 14.7365 17.9998 14.0001Z" fill="#4e8d40"/>
<path fill-rule="evenodd" clip-rule="evenodd" d="M13.9998 6.00008C11.7907 6.00008 9.99984 7.79094 9.99984 10.0001C9.99984 12.2092 11.7907 14.0001 13.9998 14.0001C16.209 14.0001 17.9998 12.2092 17.9998 10.0001C17.9998 7.79094 16.209 6.00008 13.9998 6.00008ZM12.6665 10.0001C12.6665 9.2637 13.2635 8.66675 13.9998 8.66675C14.7362 8.66675 15.3332 9.2637 15.3332 10.0001C15.3332 10.7365 14.7362 11.3334 13.9998 11.3334C13.2635 11.3334 12.6665 10.7365 12.6665 10.0001Z" fill="#4e8d40"/>
<path fill-rule="evenodd" clip-rule="evenodd" d="M0.666504 4.66675C0.666504 2.45761 2.45736 0.666748 4.6665 0.666748H23.3332C25.5423 0.666748 27.3332 2.45761 27.3332 4.66675V15.3334C27.3332 17.5426 25.5423 19.3334 23.3332 19.3334H4.6665C2.45736 19.3334 0.666504 17.5426 0.666504 15.3334V4.66675ZM4.6665 3.33341C3.93012 3.33341 3.33317 3.93037 3.33317 4.66675V15.3334C3.33317 16.0698 3.93012 16.6667 4.6665 16.6667H23.3332C24.0695 16.6667 24.6665 16.0698 24.6665 15.3334V4.66675C24.6665 3.93037 24.0695 3.33341 23.3332 3.33341H4.6665Z" fill="#4e8d40"/>
</g>
</g>
</svg>
