<svg width="44" height="44" viewBox="0 0 44 44" fill="none" xmlns="http://www.w3.org/2000/svg">
<rect x="0.5" y="0.5" width="43" height="43" rx="21.5" fill="#FFF7F4"/>
<rect x="0.5" y="0.5" width="43" height="43" rx="21.5" stroke="#BFBFBF"/>
<path d="M16.5974 14.4026C16.3131 14.1376 15.937 13.9934 15.5484 14.0002C15.1598 14.0071 14.789 14.1645 14.5142 14.4393C14.2393 14.7142 14.0819 15.0849 14.0751 15.4735C14.0682 15.8621 14.2125 16.2382 14.4774 16.5226L19.9174 21.9626L14.4774 27.4026C14.33 27.5399 14.2118 27.7055 14.1299 27.8895C14.0479 28.0735 14.0038 28.2721 14.0002 28.4735C13.9967 28.6749 14.0337 28.875 14.1092 29.0618C14.1846 29.2486 14.2969 29.4182 14.4393 29.5607C14.5818 29.7031 14.7514 29.8154 14.9382 29.8908C15.125 29.9663 15.3251 30.0033 15.5265 29.9998C15.7279 29.9962 15.9265 29.9521 16.1105 29.8701C16.2945 29.7882 16.4601 29.67 16.5974 29.5226L22.0374 24.0826L27.4774 29.5226C27.6147 29.67 27.7803 29.7882 27.9643 29.8701C28.1483 29.9521 28.347 29.9962 28.5484 29.9998C28.7498 30.0033 28.9498 29.9663 29.1366 29.8908C29.3234 29.8154 29.4931 29.7031 29.6355 29.5607C29.7779 29.4182 29.8902 29.2486 29.9657 29.0618C30.0411 28.875 30.0782 28.6749 30.0746 28.4735C30.071 28.2721 30.027 28.0735 29.945 27.8895C29.863 27.7055 29.7448 27.5399 29.5974 27.4026L24.1574 21.9626L29.5974 16.5226C29.8624 16.2382 30.0066 15.8621 29.9998 15.4735C29.9929 15.0849 29.8355 14.7142 29.5607 14.4393C29.2858 14.1645 28.9151 14.0071 28.5265 14.0002C28.1379 13.9934 27.7618 14.1376 27.4774 14.4026L22.0374 19.8426L16.5974 14.4026Z" fill="#4e8d40"/>
</svg>
