<svg width="32" height="32" viewBox="0 0 32 32" fill="none" xmlns="http://www.w3.org/2000/svg">
<g id="Component 1">
<path id="Vector (Stroke)" fill-rule="evenodd" clip-rule="evenodd" d="M7.79471 7.39777C6.97866 7.39777 6.19603 7.72403 5.619 8.30479C5.04196 8.88555 4.71779 9.67323 4.71779 10.4945V12.215H27.2819V10.4945C27.2819 9.67323 26.9577 8.88555 26.3807 8.30479C25.8036 7.72403 25.021 7.39777 24.205 7.39777H7.79471ZM29.3332 10.4945C29.3332 9.12568 28.7929 7.81289 27.8312 6.84496C26.8694 5.87703 25.5651 5.33325 24.205 5.33325H7.79471C6.43462 5.33325 5.13025 5.87703 4.16852 6.84496C3.2068 7.81289 2.6665 9.12568 2.6665 10.4945V21.5053C2.6665 22.8742 3.2068 24.1869 4.16852 25.1549C5.13025 26.1228 6.43462 26.6666 7.79471 26.6666H24.205C25.5651 26.6666 26.8694 26.1228 27.8312 25.1549C28.7929 24.1869 29.3332 22.8742 29.3332 21.5053V10.4945ZM27.2819 14.2795H4.71779V21.5053C4.71779 22.3266 5.04196 23.1143 5.619 23.695C6.19603 24.2758 6.97866 24.6021 7.79471 24.6021H24.205C25.021 24.6021 25.8036 24.2758 26.3807 23.695C26.9577 23.1143 27.2819 22.3266 27.2819 21.5053V14.2795ZM8.13659 20.1289C8.13659 19.5588 8.59578 19.0967 9.16223 19.0967H9.17591C9.74235 19.0967 10.2015 19.5588 10.2015 20.1289C10.2015 20.699 9.74235 21.1612 9.17591 21.1612H9.16223C8.59578 21.1612 8.13659 20.699 8.13659 20.1289ZM13.6067 20.1289C13.6067 19.5588 14.0659 19.0967 14.6323 19.0967H17.3674C17.9338 19.0967 18.393 19.5588 18.393 20.1289C18.393 20.699 17.9338 21.1612 17.3674 21.1612H14.6323C14.0659 21.1612 13.6067 20.699 13.6067 20.1289Z" fill="#4e8d40"/>
</g>
</svg>
