<svg width="32" height="32" viewBox="0 0 32 32" fill="none" xmlns="http://www.w3.org/2000/svg">
<g id="Group">
<path id="Vector" d="M26.6667 6.66675C27.0203 6.66675 27.3594 6.80722 27.6095 7.05727C27.8595 7.30732 28 7.64646 28 8.00008C28 8.3537 27.8595 8.69284 27.6095 8.94289C27.3594 9.19294 27.0203 9.33342 26.6667 9.33342H25.3333L25.3293 9.42808L24.0853 26.8561C24.0374 27.5289 23.7364 28.1585 23.2428 28.6182C22.7492 29.0779 22.0998 29.3334 21.4253 29.3334H10.5733C9.89885 29.3334 9.24942 29.0779 8.75585 28.6182C8.26227 28.1585 7.96122 27.5289 7.91333 26.8561L6.66933 9.42941C6.66731 9.39746 6.66642 9.36544 6.66667 9.33342H5.33333C4.97971 9.33342 4.64057 9.19294 4.39052 8.94289C4.14048 8.69284 4 8.3537 4 8.00008C4 7.64646 4.14048 7.30732 4.39052 7.05727C4.64057 6.80722 4.97971 6.66675 5.33333 6.66675H26.6667ZM22.6627 9.33342H9.33733L10.5747 26.6667H21.4253L22.6627 9.33342ZM18.6667 2.66675C19.0203 2.66675 19.3594 2.80722 19.6095 3.05727C19.8595 3.30732 20 3.64646 20 4.00008C20 4.3537 19.8595 4.69284 19.6095 4.94289C19.3594 5.19294 19.0203 5.33341 18.6667 5.33341H13.3333C12.9797 5.33341 12.6406 5.19294 12.3905 4.94289C12.1405 4.69284 12 4.3537 12 4.00008C12 3.64646 12.1405 3.30732 12.3905 3.05727C12.6406 2.80722 12.9797 2.66675 13.3333 2.66675H18.6667Z" fill="#4e8d40"/>
</g>
</svg>
