<svg width="32" height="32" viewBox="0 0 32 32" fill="none" xmlns="http://www.w3.org/2000/svg">
<g id="Component 5">
<path id="Union" fill-rule="evenodd" clip-rule="evenodd" d="M15.2173 22.664L9.33333 22.684V16.7774L22.1787 4.0547C23.1787 3.05603 24.9373 3.0507 25.9453 4.0587L28.06 6.17337C28.564 6.67737 28.8413 7.3467 28.8413 8.0587C28.8413 8.7707 28.564 9.44003 28.06 9.94403L15.2173 22.664ZM26.1787 8.0547L24.06 5.94403L21.9347 8.0507L24.0493 10.164L26.1787 8.0547ZM20.04 9.92537L12 17.8894V20.008L14.116 20.0014L22.1547 12.04L20.04 9.92537ZM25.3333 28H6.66667C5.196 28 4 26.804 4 25.3333V6.66667C4 5.196 5.196 4 6.66667 4H18.4627L15.796 6.66667H6.66667V25.3333H10.6387C10.6602 25.334 10.6814 25.337 10.7025 25.34C10.7258 25.3434 10.7489 25.3467 10.772 25.3467C10.7893 25.3467 10.807 25.3433 10.8247 25.34C10.8423 25.3367 10.86 25.3333 10.8773 25.3333H25.3333V16.4427L28 13.776V25.3333C28 26.804 26.804 28 25.3333 28Z" fill="#0B0B0B"/>
</g>
</svg>
