<svg width="160" height="52" viewBox="0 0 160 52" fill="none" xmlns="http://www.w3.org/2000/svg">
<rect x="0.5" y="0.5" width="159" height="51" rx="25.5" fill="#EDF4EC"/>
<rect x="0.5" y="0.5" width="159" height="51" rx="25.5" stroke="#B3B3B3"/>
<path fill-rule="evenodd" clip-rule="evenodd" d="M32 13C24.8203 13 19 18.8203 19 26C19 33.1788 24.8189 38.9985 31.9973 39H32.0027C39.1811 38.9985 45 33.1788 45 26C45 18.8203 39.1797 13 32 13ZM21.248 23.6667C21.0855 24.4187 21 25.1993 21 26C21 26.8007 21.0855 27.5813 21.248 28.3333H25.8201C25.7213 27.5776 25.6667 26.7977 25.6667 26C25.6667 25.2023 25.7213 24.4224 25.8201 23.6667H21.248ZM21.8864 21.6667H26.1924C26.6172 19.9092 27.2571 18.3357 27.9524 17.0415C28.2702 16.4499 28.6033 15.9098 28.9382 15.4318C25.7603 16.3508 23.1745 18.6644 21.8864 21.6667ZM27.8393 23.6667C27.7286 24.4204 27.6667 25.2009 27.6667 26C27.6667 26.7991 27.7286 27.5796 27.8393 28.3333H36.1607C36.2713 27.5796 36.3333 26.7991 36.3333 26C36.3333 25.2009 36.2713 24.4204 36.1607 23.6667H27.8393ZM35.7431 21.6667H28.2569C28.6324 20.2817 29.1526 19.0334 29.7143 17.988C30.2663 16.9606 30.8443 16.1553 31.3377 15.6226C31.5859 15.3548 31.7936 15.1765 31.9472 15.0728C31.9669 15.0596 31.9844 15.0483 32 15.0388C32.0156 15.0483 32.0331 15.0596 32.0528 15.0728C32.2064 15.1765 32.4141 15.3548 32.6623 15.6226C33.1557 16.1553 33.7337 16.9606 34.2857 17.988C34.8473 19.0334 35.3676 20.2817 35.7431 21.6667ZM38.1799 23.6667C38.2787 24.4224 38.3333 25.2023 38.3333 26C38.3333 26.7977 38.2787 27.5776 38.1799 28.3333H42.752C42.9144 27.5813 43 26.8007 43 26C43 25.1993 42.9144 24.4187 42.752 23.6667H38.1799ZM42.1136 21.6667H37.8076C37.3828 19.9092 36.7429 18.3357 36.0476 17.0415C35.7299 16.4499 35.3967 15.9098 35.0619 15.4318C38.2397 16.3508 40.8255 18.6644 42.1136 21.6667ZM28.9382 36.5683C25.7603 35.6492 23.1745 33.3356 21.8864 30.3333H26.1924C26.6172 32.0908 27.2571 33.6643 27.9524 34.9585C28.2702 35.55 28.6033 36.0903 28.9382 36.5683ZM29.7143 34.012C29.1526 32.9667 28.6324 31.7183 28.2569 30.3333H35.7431C35.3676 31.7183 34.8473 32.9667 34.2857 34.012C33.7337 35.0395 33.1557 35.8447 32.6623 36.3775C32.4141 36.6452 32.2064 36.8235 32.0528 36.9272C32.0331 36.9404 32.0156 36.9517 32 36.9612C31.9844 36.9517 31.9669 36.9404 31.9472 36.9272C31.7936 36.8235 31.5859 36.6452 31.3377 36.3775C30.8443 35.8447 30.2663 35.0395 29.7143 34.012ZM36.0476 34.9585C36.7429 33.6643 37.3828 32.0908 37.8076 30.3333H42.1136C40.8255 33.3356 38.2397 35.6492 35.0619 36.5683C35.3967 36.0903 35.7299 35.55 36.0476 34.9585Z" fill="#4e8d40"/>
<path d="M65.76 28.844H60.672L59.696 31.5H58.512L62.592 20.46H63.856L67.92 31.5H66.736L65.76 28.844ZM65.424 27.916L63.216 21.868L61.008 27.916H65.424ZM70.8375 24.316C71.0828 23.772 71.4562 23.3507 71.9575 23.052C72.4695 22.7533 73.0935 22.604 73.8295 22.604V23.772H73.5255C72.7148 23.772 72.0642 23.9907 71.5735 24.428C71.0828 24.8653 70.8375 25.596 70.8375 26.62V31.5H69.7175V22.764H70.8375V24.316ZM75.0024 27.116C75.0024 26.22 75.1784 25.436 75.5304 24.764C75.893 24.0813 76.389 23.5587 77.0184 23.196C77.6584 22.8227 78.3784 22.636 79.1784 22.636C80.0104 22.636 80.725 22.828 81.3224 23.212C81.9304 23.596 82.3677 24.0867 82.6344 24.684V22.764H83.7544V31.5H82.6344V29.564C82.357 30.1613 81.9144 30.6573 81.3064 31.052C80.709 31.436 79.9944 31.628 79.1624 31.628C78.373 31.628 77.6584 31.4413 77.0184 31.068C76.389 30.6947 75.893 30.1667 75.5304 29.484C75.1784 28.8013 75.0024 28.012 75.0024 27.116ZM82.6344 27.132C82.6344 26.428 82.4904 25.8093 82.2024 25.276C81.9144 24.7427 81.5197 24.332 81.0184 24.044C80.5277 23.756 79.9837 23.612 79.3864 23.612C78.7677 23.612 78.213 23.7507 77.7224 24.028C77.2317 24.3053 76.8424 24.7107 76.5544 25.244C76.277 25.7667 76.1384 26.3907 76.1384 27.116C76.1384 27.8307 76.277 28.46 76.5544 29.004C76.8424 29.5373 77.2317 29.948 77.7224 30.236C78.213 30.5133 78.7677 30.652 79.3864 30.652C79.9837 30.652 80.5277 30.508 81.0184 30.22C81.5197 29.932 81.9144 29.5213 82.2024 28.988C82.4904 28.4547 82.6344 27.836 82.6344 27.132ZM87.4153 24.7C87.7033 24.092 88.1459 23.596 88.7433 23.212C89.3513 22.828 90.0659 22.636 90.8873 22.636C91.6873 22.636 92.4019 22.8227 93.0312 23.196C93.6606 23.5587 94.1513 24.0813 94.5033 24.764C94.8659 25.436 95.0473 26.22 95.0473 27.116C95.0473 28.012 94.8659 28.8013 94.5033 29.484C94.1513 30.1667 93.6553 30.6947 93.0153 31.068C92.3859 31.4413 91.6766 31.628 90.8873 31.628C90.0553 31.628 89.3353 31.4413 88.7273 31.068C88.1299 30.684 87.6926 30.188 87.4153 29.58V31.5H86.3113V19.66H87.4153V24.7ZM93.9113 27.116C93.9113 26.3907 93.7673 25.7667 93.4792 25.244C93.2019 24.7107 92.8179 24.3053 92.3273 24.028C91.8366 23.7507 91.2819 23.612 90.6633 23.612C90.0659 23.612 89.5166 23.756 89.0153 24.044C88.5246 24.332 88.1353 24.7427 87.8473 25.276C87.5593 25.8093 87.4153 26.428 87.4153 27.132C87.4153 27.836 87.5593 28.4547 87.8473 28.988C88.1353 29.5213 88.5246 29.932 89.0153 30.22C89.5166 30.508 90.0659 30.652 90.6633 30.652C91.2819 30.652 91.8366 30.5133 92.3273 30.236C92.8179 29.948 93.2019 29.5373 93.4792 29.004C93.7673 28.46 93.9113 27.8307 93.9113 27.116ZM97.6681 21.116C97.4441 21.116 97.2521 21.036 97.0921 20.876C96.9321 20.716 96.8521 20.5187 96.8521 20.284C96.8521 20.0493 96.9321 19.8573 97.0921 19.708C97.2521 19.548 97.4441 19.468 97.6681 19.468C97.8921 19.468 98.0841 19.548 98.2441 19.708C98.4041 19.8573 98.4841 20.0493 98.4841 20.284C98.4841 20.5187 98.4041 20.716 98.2441 20.876C98.0841 21.036 97.8921 21.116 97.6681 21.116ZM98.2281 22.764V31.5H97.1081V22.764H98.2281ZM100.252 27.132C100.252 26.2253 100.434 25.436 100.796 24.764C101.159 24.0813 101.66 23.5587 102.3 23.196C102.94 22.8227 103.671 22.636 104.492 22.636C105.57 22.636 106.455 22.9027 107.148 23.436C107.852 23.9693 108.306 24.6947 108.508 25.612H107.308C107.159 24.9827 106.834 24.492 106.332 24.14C105.842 23.7773 105.228 23.596 104.492 23.596C103.906 23.596 103.378 23.7293 102.908 23.996C102.439 24.2627 102.066 24.6627 101.788 25.196C101.522 25.7187 101.388 26.364 101.388 27.132C101.388 27.9 101.522 28.5507 101.788 29.084C102.066 29.6173 102.439 30.0173 102.908 30.284C103.378 30.5507 103.906 30.684 104.492 30.684C105.228 30.684 105.842 30.508 106.332 30.156C106.834 29.7933 107.159 29.292 107.308 28.652H108.508C108.306 29.548 107.852 30.268 107.148 30.812C106.444 31.356 105.559 31.628 104.492 31.628C103.671 31.628 102.94 31.4467 102.3 31.084C101.66 30.7107 101.159 30.188 100.796 29.516C100.434 28.8333 100.252 28.0387 100.252 27.132Z" fill="#080808"/>
<path d="M123 26C123 25.7017 123.119 25.4155 123.33 25.2045C123.54 24.9936 123.827 24.875 124.125 24.875H137.306L132.375 20.4635C132.155 20.2641 132.022 19.9855 132.006 19.6887C131.991 19.3919 132.093 19.1009 132.291 18.8794C132.49 18.6578 132.767 18.5237 133.064 18.5063C133.361 18.4889 133.652 18.5897 133.875 18.7865L141 25.1615C141.118 25.2671 141.212 25.3963 141.277 25.5408C141.342 25.6853 141.375 25.8418 141.375 26C141.375 26.1583 141.342 26.3148 141.277 26.4593C141.212 26.6038 141.118 26.733 141 26.8385L133.875 33.2135C133.765 33.313 133.637 33.3898 133.497 33.4395C133.357 33.4891 133.209 33.5106 133.061 33.5028C132.913 33.495 132.768 33.458 132.634 33.3939C132.5 33.3298 132.38 33.2399 132.282 33.1294C132.183 33.0189 132.107 32.8899 132.058 32.7499C132.009 32.6099 131.988 32.4616 131.997 32.3136C132.006 32.1655 132.044 32.0207 132.108 31.8873C132.173 31.754 132.264 31.6348 132.375 31.5365L137.306 27.125H124.125C123.827 27.125 123.54 27.0065 123.33 26.7955C123.119 26.5846 123 26.2984 123 26Z" fill="#8F8F8F"/>
</svg>
