<svg width="24" height="25" viewBox="0 0 24 25" fill="none" xmlns="http://www.w3.org/2000/svg">
<g id="Component 1" clip-path="url(#clip0_61_4050)">
<path id="Vector" d="M12 21.3999L16.95 16.4499C17.9289 15.4709 18.5955 14.2236 18.8656 12.8658C19.1356 11.5079 18.9969 10.1005 18.4671 8.82148C17.9373 7.54244 17.04 6.44923 15.8889 5.68009C14.7378 4.91095 13.3844 4.50043 12 4.50043C10.6156 4.50043 9.26222 4.91095 8.11109 5.68009C6.95996 6.44923 6.06275 7.54244 5.53292 8.82148C5.00308 10.1005 4.86442 11.5079 5.13445 12.8658C5.40449 14.2236 6.07111 15.4709 7.05 16.4499L12 21.3999ZM12 24.2279L5.636 17.8639C4.37734 16.6052 3.52019 15.0016 3.17293 13.2558C2.82567 11.5099 3.00391 9.70035 3.6851 8.05582C4.36629 6.41129 5.51984 5.00569 6.99988 4.01677C8.47992 3.02784 10.22 2.5 12 2.5C13.78 2.5 15.5201 3.02784 17.0001 4.01677C18.4802 5.00569 19.6337 6.41129 20.3149 8.05582C20.9961 9.70035 21.1743 11.5099 20.8271 13.2558C20.4798 15.0016 19.6227 16.6052 18.364 17.8639L12 24.2279ZM12 13.4999C12.5304 13.4999 13.0391 13.2892 13.4142 12.9141C13.7893 12.5391 14 12.0304 14 11.4999C14 10.9695 13.7893 10.4608 13.4142 10.0857C13.0391 9.71064 12.5304 9.49992 12 9.49992C11.4696 9.49992 10.9609 9.71064 10.5858 10.0857C10.2107 10.4608 10 10.9695 10 11.4999C10 12.0304 10.2107 12.5391 10.5858 12.9141C10.9609 13.2892 11.4696 13.4999 12 13.4999ZM12 15.4999C10.9391 15.4999 9.92172 15.0785 9.17158 14.3283C8.42143 13.5782 8 12.5608 8 11.4999C8 10.4391 8.42143 9.42164 9.17158 8.67149C9.92172 7.92135 10.9391 7.49992 12 7.49992C13.0609 7.49992 14.0783 7.92135 14.8284 8.67149C15.5786 9.42164 16 10.4391 16 11.4999C16 12.5608 15.5786 13.5782 14.8284 14.3283C14.0783 15.0785 13.0609 15.4999 12 15.4999Z" fill="#4e8d40"/>
</g>
<defs>
<clipPath id="clip0_61_4050">
<rect width="24" height="24" fill="white" transform="translate(0 0.5)"/>
</clipPath>
</defs>
</svg>
