<svg width="28" height="28" viewBox="0 0 28 28" fill="none" xmlns="http://www.w3.org/2000/svg">
<path d="M16.3392 2.33692C18.4742 2.3359 20.5449 3.06686 22.2062 4.40789C23.8674 5.74893 25.0187 7.61897 25.468 9.70613C25.9173 11.7933 25.6374 13.9714 24.6751 15.8772C23.7128 17.783 22.1262 19.3012 20.1799 20.1787C19.5577 21.5541 18.6113 22.7581 17.4217 23.6874C16.2321 24.6167 14.8348 25.2436 13.3498 25.5143C11.8647 25.785 10.3361 25.6915 8.89512 25.2417C7.45413 24.7919 6.14374 23.9994 5.07632 22.932C4.00891 21.8645 3.21633 20.5541 2.76656 19.1132C2.31679 17.6722 2.22325 16.1436 2.49396 14.6585C2.76467 13.1734 3.39156 11.7762 4.32086 10.5866C5.25016 9.39698 6.45413 8.45053 7.82952 7.82841C8.56936 6.19145 9.76571 4.80267 11.2751 3.82862C12.7845 2.85458 14.5428 2.33664 16.3392 2.33692ZM11.6725 9.33692C9.81601 9.33692 8.03553 10.0744 6.72278 11.3872C5.41002 12.6999 4.67253 14.4804 4.67253 16.3369C4.67253 18.1934 5.41002 19.9739 6.72278 21.2867C8.03553 22.5994 9.81601 23.3369 11.6725 23.3369C13.529 23.3369 15.3095 22.5994 16.6223 21.2867C17.935 19.9739 18.6725 18.1934 18.6725 16.3369C18.6725 14.4804 17.935 12.6999 16.6223 11.3872C15.3095 10.0744 13.529 9.33692 11.6725 9.33692ZM12.8392 10.5036V11.6702H15.1725V14.0036H10.5059C10.3601 14.0033 10.2195 14.0576 10.1118 14.1558C10.0041 14.2541 9.93701 14.389 9.92384 14.5342C9.91067 14.6794 9.95233 14.8242 10.0406 14.9402C10.1289 15.0562 10.2574 15.1349 10.4009 15.1609L10.5059 15.1702H12.8392C13.6127 15.1702 14.3546 15.4775 14.9016 16.0245C15.4486 16.5715 15.7559 17.3134 15.7559 18.0869C15.7559 18.8605 15.4486 19.6023 14.9016 20.1493C14.3546 20.6963 13.6127 21.0036 12.8392 21.0036V22.1702H10.5059V21.0036H8.17252V18.6702H12.8392C12.985 18.6705 13.1256 18.6162 13.2333 18.518C13.341 18.4198 13.408 18.2848 13.4212 18.1396C13.4344 17.9944 13.3927 17.8496 13.3044 17.7336C13.2161 17.6176 13.0876 17.5389 12.9442 17.5129L12.8392 17.5036H10.5059C9.73231 17.5036 8.99044 17.1963 8.44346 16.6493C7.89648 16.1023 7.58919 15.3605 7.58919 14.5869C7.58919 13.8134 7.89648 13.0715 8.44346 12.5245C8.99044 11.9775 9.73231 11.6702 10.5059 11.6702V10.5036H12.8392ZM16.3392 4.67025C15.3505 4.66893 14.3727 4.8776 13.4707 5.28246C12.5686 5.68733 11.7629 6.27914 11.1067 7.01875C12.4253 6.9387 13.7459 7.13949 14.9812 7.60785C16.2165 8.07621 17.3382 8.80147 18.2723 9.73566C19.2064 10.6698 19.9315 11.7917 20.3997 13.027C20.8679 14.2623 21.0686 15.583 20.9884 16.9016C22.0491 15.9585 22.7981 14.7152 23.136 13.3366C23.4739 11.958 23.3847 10.5093 22.8803 9.18259C22.3758 7.85586 21.48 6.71383 20.3116 5.90794C19.1432 5.10206 17.7574 4.67041 16.338 4.67025" fill="#0B0B0B"/>
</svg>
