<svg width="28" height="28" viewBox="0 0 28 28" fill="none" xmlns="http://www.w3.org/2000/svg">
<path d="M19.8334 20.9999C20.4522 20.9999 21.0457 21.2458 21.4833 21.6833C21.9209 22.1209 22.1667 22.7144 22.1667 23.3333C22.1667 23.9521 21.9209 24.5456 21.4833 24.9832C21.0457 25.4208 20.4522 25.6666 19.8334 25.6666C19.2145 25.6666 18.621 25.4208 18.1834 24.9832C17.7459 24.5456 17.5 23.9521 17.5 23.3333C17.5 22.0383 18.5384 20.9999 19.8334 20.9999ZM1.16669 2.33325H4.98169L6.07835 4.66659H23.3334C23.6428 4.66659 23.9395 4.7895 24.1583 5.00829C24.3771 5.22709 24.5 5.52383 24.5 5.83325C24.5 6.03159 24.4417 6.22992 24.36 6.41658L20.1834 13.9649C19.7867 14.6766 19.0167 15.1666 18.1417 15.1666H9.45002L8.40002 17.0683L8.36502 17.2083C8.36502 17.2856 8.39575 17.3598 8.45045 17.4145C8.50515 17.4692 8.57933 17.4999 8.65669 17.4999H22.1667V19.8333H8.16669C7.54785 19.8333 6.95436 19.5874 6.51677 19.1498C6.07919 18.7122 5.83335 18.1188 5.83335 17.4999C5.83335 17.0916 5.93835 16.7066 6.11335 16.3799L7.70002 13.5216L3.50002 4.66659H1.16669V2.33325ZM8.16669 20.9999C8.78553 20.9999 9.37902 21.2458 9.8166 21.6833C10.2542 22.1209 10.5 22.7144 10.5 23.3333C10.5 23.9521 10.2542 24.5456 9.8166 24.9832C9.37902 25.4208 8.78553 25.6666 8.16669 25.6666C7.54785 25.6666 6.95436 25.4208 6.51677 24.9832C6.07919 24.5456 5.83335 23.9521 5.83335 23.3333C5.83335 22.0383 6.87169 20.9999 8.16669 20.9999ZM18.6667 12.8333L21.91 6.99992H7.16335L9.91669 12.8333H18.6667Z" fill="#0B0B0B"/>
</svg>
