<svg width="24" height="24" viewBox="0 0 24 24" fill="none" xmlns="http://www.w3.org/2000/svg">
<g id="Component 1">
<path id="Vector" d="M3 12C3 11.7016 3.11853 11.4155 3.3295 11.2045C3.54048 10.9935 3.82663 10.875 4.125 10.875H17.3055L12.375 6.46348C12.1546 6.26403 12.0221 5.98547 12.0064 5.68865C11.9908 5.39183 12.0932 5.10087 12.2914 4.87932C12.4895 4.65778 12.7673 4.52366 13.064 4.50626C13.3608 4.48887 13.6523 4.58961 13.875 4.78648L21 11.1615C21.118 11.267 21.2123 11.3962 21.277 11.5407C21.3416 11.6852 21.375 11.8417 21.375 12C21.375 12.1583 21.3416 12.3147 21.277 12.4592C21.2123 12.6037 21.118 12.733 21 12.8385L13.875 19.2135C13.7651 19.313 13.6365 19.3898 13.4968 19.4394C13.3571 19.4891 13.2089 19.5106 13.0608 19.5028C12.9127 19.495 12.7677 19.4579 12.6339 19.3938C12.5002 19.3298 12.3805 19.2399 12.2816 19.1293C12.1828 19.0188 12.1067 18.8898 12.0579 18.7498C12.009 18.6098 11.9884 18.4615 11.9971 18.3135C12.0057 18.1655 12.0436 18.0206 12.1085 17.8873C12.1733 17.7539 12.2639 17.6347 12.375 17.5365L17.3055 13.125H4.125C3.82663 13.125 3.54048 13.0064 3.3295 12.7955C3.11853 12.5845 3 12.2983 3 12Z" fill="white"/>
</g>
</svg>
