<svg width="10" height="11" viewBox="0 0 10 11" fill="none" xmlns="http://www.w3.org/2000/svg">
<g id="Component 1">
<path id="Vector" d="M7.9498 2.27371C8.14391 2.38243 8.2869 2.56379 8.34732 2.77791C8.40774 2.99204 8.38065 3.22139 8.27199 3.41554L5.51272 8.34291C5.44284 8.46774 5.34591 8.57535 5.22905 8.65786C5.11218 8.74037 4.97833 8.79568 4.83731 8.81975C4.69629 8.84381 4.55168 8.83602 4.41406 8.79695C4.27644 8.75787 4.14931 8.68849 4.04199 8.59391L1.95084 6.75184C1.78388 6.60471 1.6822 6.39729 1.66817 6.1752C1.65415 5.95311 1.72892 5.73454 1.87604 5.56758C2.02317 5.40062 2.23059 5.29894 2.45268 5.28491C2.67477 5.27089 2.89334 5.34566 3.0603 5.49278L4.48333 6.74656L6.80773 2.59591C6.86156 2.49976 6.9338 2.41516 7.02033 2.34693C7.10686 2.2787 7.20598 2.22819 7.31203 2.19827C7.41808 2.16835 7.52899 2.15961 7.63842 2.17256C7.74785 2.1855 7.85365 2.21988 7.9498 2.27371Z" fill="#4e8d40"/>
</g>
</svg>
