<svg width="10" height="10" viewBox="0 0 10 10" fill="none" xmlns="http://www.w3.org/2000/svg">
<g id="Component 1">
<path id="Vector" d="M2.74876 1.83425C2.63028 1.72385 2.47358 1.66374 2.31166 1.6666C2.14974 1.66946 1.99525 1.73505 1.88074 1.84956C1.76623 1.96407 1.70064 2.11856 1.69778 2.28048C1.69492 2.4424 1.75503 2.5991 1.86543 2.71758L4.13209 4.98425L1.86543 7.25091C1.80402 7.30813 1.75477 7.37713 1.72061 7.4538C1.68645 7.53046 1.66808 7.61323 1.6666 7.69714C1.66512 7.78106 1.68056 7.86442 1.71199 7.94225C1.74343 8.02007 1.79021 8.09076 1.84956 8.15011C1.90891 8.20946 1.97961 8.25625 2.05743 8.28768C2.13525 8.31912 2.21861 8.33455 2.30253 8.33307C2.38645 8.33159 2.46921 8.31322 2.54588 8.27906C2.62254 8.2449 2.69154 8.19565 2.74876 8.13425L5.01543 5.86758L7.28209 8.13425C7.33931 8.19565 7.40831 8.2449 7.48498 8.27906C7.56164 8.31322 7.64441 8.33159 7.72832 8.33307C7.81224 8.33455 7.8956 8.31912 7.97342 8.28768C8.05125 8.25625 8.12194 8.20946 8.18129 8.15011C8.24064 8.09076 8.28743 8.02007 8.31886 7.94225C8.3503 7.86442 8.36573 7.78106 8.36425 7.69714C8.36277 7.61323 8.3444 7.53046 8.31024 7.4538C8.27608 7.37713 8.22683 7.30813 8.16543 7.25091L5.89876 4.98425L8.16543 2.71758C8.27583 2.5991 8.33593 2.4424 8.33307 2.28048C8.33022 2.11856 8.26462 1.96407 8.15011 1.84956C8.0356 1.73505 7.88111 1.66946 7.7192 1.6666C7.55728 1.66374 7.40057 1.72385 7.28209 1.83425L5.01543 4.10091L2.74876 1.83425Z" fill="#B3B3B3"/>
</g>
</svg>
