<svg width="32" height="33" viewBox="0 0 32 33" fill="none" xmlns="http://www.w3.org/2000/svg">
<g id="Component 1">
<g id="Union">
<path d="M19.9998 15.4333C19.2635 15.4333 18.6665 15.9109 18.6665 16.5C18.6665 17.0891 19.2635 17.5666 19.9998 17.5666C20.7362 17.5666 21.3332 17.0891 21.3332 16.5C21.3332 15.9109 20.7362 15.4333 19.9998 15.4333Z" fill="#4e8d40"/>
<path fill-rule="evenodd" clip-rule="evenodd" d="M3.64281 6.6143C4.26794 6.1142 5.11578 5.83325 5.99984 5.83325H23.9998C24.8839 5.83325 25.7317 6.1142 26.3569 6.6143C26.982 7.1144 27.3332 7.79267 27.3332 8.49992V11.3885C28.5104 11.8 29.3332 12.7397 29.3332 13.8333V19.1666C29.3332 20.2601 28.5104 21.1999 27.3332 21.6114V24.4999C27.3332 25.2072 26.982 25.8854 26.3569 26.3855C25.7317 26.8856 24.8839 27.1666 23.9998 27.1666H5.99984C5.11578 27.1666 4.26793 26.8856 3.64281 26.3855C3.01769 25.8854 2.6665 25.2072 2.6665 24.4999V8.49992C2.6665 7.79267 3.01769 7.1144 3.64281 6.6143ZM24.6665 8.49992V11.1666H16.6665C14.8256 11.1666 13.3332 12.3605 13.3332 13.8333V19.1666C13.3332 20.6393 14.8256 21.8333 16.6665 21.8333H24.6665V24.4999C24.6665 24.6414 24.5963 24.777 24.4712 24.877C24.3462 24.9771 24.1766 25.0333 23.9998 25.0333H5.99984C5.82303 25.0333 5.65346 24.9771 5.52843 24.877C5.40341 24.777 5.33317 24.6414 5.33317 24.4999V8.49992C5.33317 8.35847 5.40341 8.22281 5.52843 8.12279C5.65346 8.02278 5.82303 7.96659 5.99984 7.96659H23.9998C24.1766 7.96659 24.3462 8.02277 24.4712 8.12279C24.5963 8.22282 24.6665 8.35847 24.6665 8.49992ZM16.6665 13.2999C16.2983 13.2999 15.9998 13.5387 15.9998 13.8333V19.1666C15.9998 19.4611 16.2983 19.6999 16.6665 19.6999H25.9998C26.368 19.6999 26.6665 19.4611 26.6665 19.1666V13.8333C26.6665 13.5387 26.368 13.2999 25.9998 13.2999H16.6665Z" fill="#4e8d40"/>
</g>
</g>
</svg>
