<svg width="25" height="24" viewBox="0 0 25 24" fill="none" xmlns="http://www.w3.org/2000/svg">
<path d="M17.8334 18C18.3638 18 18.8725 18.2107 19.2476 18.5858C19.6227 18.9609 19.8334 19.4696 19.8334 20C19.8334 20.5304 19.6227 21.0391 19.2476 21.4142C18.8725 21.7893 18.3638 22 17.8334 22C17.3029 22 16.7942 21.7893 16.4192 21.4142C16.0441 21.0391 15.8334 20.5304 15.8334 20C15.8334 18.89 16.7234 18 17.8334 18ZM1.83337 2H5.10337L6.04337 4H20.8334C21.0986 4 21.3529 4.10536 21.5405 4.29289C21.728 4.48043 21.8334 4.73478 21.8334 5C21.8334 5.17 21.7834 5.34 21.7134 5.5L18.1334 11.97C17.7934 12.58 17.1334 13 16.3834 13H8.93337L8.03337 14.63L8.00337 14.75C8.00337 14.8163 8.02971 14.8799 8.0766 14.9268C8.12348 14.9737 8.18707 15 8.25337 15H19.8334V17H7.83337C7.30294 17 6.79423 16.7893 6.41916 16.4142C6.04409 16.0391 5.83337 15.5304 5.83337 15C5.83337 14.65 5.92337 14.32 6.07337 14.04L7.43337 11.59L3.83337 4H1.83337V2ZM7.83337 18C8.36381 18 8.87251 18.2107 9.24759 18.5858C9.62266 18.9609 9.83337 19.4696 9.83337 20C9.83337 20.5304 9.62266 21.0391 9.24759 21.4142C8.87251 21.7893 8.36381 22 7.83337 22C7.30294 22 6.79423 21.7893 6.41916 21.4142C6.04409 21.0391 5.83337 20.5304 5.83337 20C5.83337 18.89 6.72337 18 7.83337 18ZM16.8334 11L19.6134 6H6.97337L9.33337 11H16.8334Z" fill="white"/>
</svg>
